<?xml version="1.0" encoding="UTF-8" standalone="no"?><!DOCTYPE svg PUBLIC "-//W3C//DTD SVG 1.1//EN" "http://www.w3.org/Graphics/SVG/1.1/DTD/svg11.dtd"><svg width="100%" height="100%" viewBox="0 0 222 336" version="1.1" xmlns="http://www.w3.org/2000/svg" xmlns:xlink="http://www.w3.org/1999/xlink" xml:space="preserve" xmlns:serif="http://www.serif.com/" style="fill-rule:evenodd;clip-rule:evenodd;stroke-linecap:round;stroke-miterlimit:10;"><g id="Calque-0-Image" serif:id="Calque 0 Image"><path d="M105.574,24.833l20.389,38" style="fill:none;stroke:#e2bc00;stroke-width:7px;"/><path d="M134.742,64.5l2.786,-61" style="fill:none;stroke:#e2bc00;stroke-width:7px;"/><path d="M171.861,12.167l-23.125,55.667" style="fill:none;stroke:#e2bc00;stroke-width:7px;"/><path d="M169.794,292.917l-23.811,-34.583" style="fill:none;stroke:#e2bc00;stroke-width:7px;"/><path d="M135.064,264.5l-2.637,56.834" style="fill:none;stroke:#e2bc00;stroke-width:7px;"/><path d="M107.64,309.333l18.673,-48.865" style="fill:none;stroke:#e2bc00;stroke-width:7px;"/><path d="M44.5,239.778c0,0 -26.5,5.055 -35,30.055c-8.5,25 8.5,51.5 8.5,51.5" style="fill:none;stroke:#00113a;stroke-width:4px;"/><path d="M28,309.333c0,0 4.321,17.409 -4.5,24c-8.03,6 -21.5,-6.5 -21.5,-6.5" style="fill:none;stroke:#00113a;stroke-width:4px;"/><path d="M75.665,87.928l-0.167,-0.167l-0.055,0.056c-0.037,0 -0.056,0.019 -0.056,0.055l0.111,0.223l0.167,-0.167Zm15.893,-22.783c0.851,0.186 1.472,0.556 1.861,1.112c0.389,0.555 0.453,1.241 0.194,2.056c-0.482,1.555 -0.954,3.103 -1.417,4.639c-0.463,1.538 -1.12,3.011 -1.972,4.418c-0.075,0.111 -0.149,0.315 -0.223,0.611c-0.408,1.038 -0.88,1.621 -1.417,1.751c-0.537,0.13 -1.287,-0.176 -2.25,-0.917c0.407,-0.889 0.842,-1.778 1.306,-2.667c0.463,-0.889 0.879,-1.797 1.25,-2.723c0.37,-0.926 0.685,-1.862 0.945,-2.807c0.259,-0.944 0.407,-1.953 0.444,-3.028c-0.666,-0.518 -1.389,-0.897 -2.167,-1.139c-0.778,-0.24 -1.575,-0.453 -2.389,-0.639c-0.519,-0.111 -1,-0.018 -1.445,0.278c-0.445,0.297 -0.778,0.741 -1,1.334c-0.408,1.259 -0.797,2.51 -1.167,3.751c-0.371,1.241 -0.741,2.491 -1.112,3.75c-0.185,0.556 -0.324,1.121 -0.416,1.695c-0.093,0.575 -0.195,1.139 -0.306,1.695c-0.037,0.111 -0.074,0.222 -0.111,0.333c-0.037,0.111 -0.056,0.222 -0.056,0.334l0.334,9.279c0,0.223 -0.009,0.445 -0.028,0.667c-0.019,0.222 -0.009,0.445 0.028,0.667c0.036,0.556 0.055,1.121 0.055,1.695c0,0.575 0.037,1.158 0.112,1.75c0.036,1.075 0.147,2.131 0.333,3.167c0.036,0.297 0.074,0.612 0.111,0.945c0.037,0.334 0.13,0.649 0.278,0.945c0.296,0.519 0.62,1.056 0.973,1.611c0.351,0.556 0.731,1.167 1.139,1.834c0.296,-0.593 0.574,-1.112 0.833,-1.556c0.259,-0.445 0.481,-0.889 0.667,-1.333c0.518,-1.223 1.009,-2.446 1.472,-3.668c0.463,-1.223 0.954,-2.426 1.473,-3.612c0.296,-0.63 0.611,-1.24 0.944,-1.834c0.334,-0.592 0.685,-1.203 1.057,-1.833c0.036,-0.074 0.101,-0.139 0.194,-0.195c0.092,-0.056 0.212,-0.12 0.361,-0.194c0.074,0.333 0.092,0.519 0.055,0.555c-0.37,0.631 -0.648,1.27 -0.833,1.917c-0.186,0.649 -0.325,1.306 -0.417,1.973c-0.092,0.667 -0.176,1.333 -0.25,2c-0.074,0.667 -0.186,1.334 -0.333,2.001l-0.5,2.111c-0.075,0.408 -0.176,0.816 -0.306,1.223c-0.13,0.408 -0.214,0.815 -0.25,1.223c-0.074,0.703 -0.259,1.351 -0.555,1.944c-0.297,0.592 -0.686,1.084 -1.167,1.473c-0.482,0.389 -1.038,0.639 -1.667,0.75c-0.631,0.111 -1.298,0.056 -2.001,-0.167c-0.667,-0.222 -1.332,-0.435 -1.995,-0.639c-0.664,-0.204 -1.289,-0.491 -1.875,-0.861c-0.478,-0.297 -0.929,-0.649 -1.351,-1.056c-0.422,-0.408 -0.781,-0.853 -1.075,-1.334c-0.441,-0.74 -0.864,-1.49 -1.267,-2.25c-0.405,-0.759 -0.643,-1.584 -0.717,-2.473c-0.074,-0.629 -0.148,-1.278 -0.222,-1.945c-0.075,-0.667 -0.13,-1.333 -0.166,-2c-0.038,-1.556 -0.065,-3.084 -0.084,-4.584c-0.018,-1.5 0.01,-3.029 0.084,-4.584c0,-0.778 0.055,-1.547 0.166,-2.307c0.112,-0.758 0.203,-1.528 0.278,-2.306c0.037,-0.185 0.074,-0.379 0.111,-0.583c0.037,-0.203 0.056,-0.398 0.056,-0.584c0.036,-2.445 0.715,-4.704 2.038,-6.779c0.33,-0.518 0.595,-1.084 0.797,-1.694c0.202,-0.612 0.432,-1.213 0.689,-1.807c0.404,-0.851 0.927,-1.518 1.57,-2c0.642,-0.481 1.5,-0.685 2.574,-0.611c1.259,0.037 2.509,0.074 3.751,0.111c1.241,0.037 2.473,0.278 3.695,0.722c0.37,0.149 0.75,0.232 1.139,0.251c0.389,0.019 0.768,0.065 1.14,0.138" style="fill:#00113a;fill-rule:nonzero;"/><path d="M98.947,99.541c0.37,-0.852 0.704,-1.722 1,-2.611c0.296,-0.889 0.592,-1.779 0.889,-2.668l-0.166,-0.722c-0.186,-0.629 -0.306,-1.546 -0.362,-2.75c-0.055,-1.204 0.009,-2.454 0.195,-3.751c-0.408,-0.519 -0.742,-1.065 -1,-1.64c-0.26,-0.574 -0.389,-1.231 -0.389,-1.972c-0.186,0 -0.334,-0.019 -0.445,-0.056c-0.075,0.111 -0.148,0.213 -0.222,0.306c-0.075,0.093 -0.13,0.194 -0.167,0.305c-0.666,2.001 -1.166,4.038 -1.5,6.113c-0.333,2.075 -0.538,4.205 -0.611,6.39c-0.037,0.519 -0.019,1.056 0.055,1.612c0.074,0.555 0.167,1.111 0.278,1.667c0.037,0.185 0.13,0.388 0.278,0.61c0.147,0.223 0.314,0.372 0.5,0.445c0.147,0.074 0.324,0.056 0.528,-0.055c0.203,-0.112 0.379,-0.223 0.528,-0.334c0.296,-0.222 0.5,-0.518 0.611,-0.889m4.334,-4.445c0.148,0.148 0.296,0.222 0.445,0.222c0.259,0 0.509,-0.064 0.75,-0.194c0.241,-0.13 0.5,-0.296 0.778,-0.5c0.278,-0.204 0.592,-0.426 0.944,-0.667c0.353,-0.241 0.787,-0.473 1.307,-0.695c-0.075,0.408 -0.204,0.853 -0.39,1.334c-0.185,0.482 -0.592,0.964 -1.222,1.445c-0.593,0.519 -1.084,0.861 -1.472,1.027c-0.39,0.167 -0.899,0.14 -1.529,-0.083c-0.074,0 -0.13,-0.018 -0.166,-0.055c-0.112,0.407 -0.222,0.805 -0.334,1.194c-0.111,0.389 -0.259,0.788 -0.444,1.195c-0.297,0.742 -0.686,1.427 -1.167,2.056c-0.482,0.629 -1.223,0.963 -2.223,1c-1.667,0.037 -3.242,-0.482 -4.723,-1.556c-0.482,-0.333 -0.843,-0.75 -1.084,-1.25c-0.241,-0.5 -0.38,-1.028 -0.416,-1.584l0,-5.278c0,-0.186 -0.01,-0.352 -0.028,-0.5c-0.019,-0.148 -0.028,-0.315 -0.028,-0.501l0.334,-3.556c0.295,-1.704 0.694,-3.352 1.194,-4.945c0.5,-1.593 1.102,-3.168 1.806,-4.724l0.5,-0.834c0.481,-1 1.334,-1.351 2.556,-1.055c0.667,0.186 1.342,0.352 2.028,0.5c0.686,0.148 1.38,0.297 2.084,0.445c0,0.074 0.009,0.13 0.028,0.166c0.018,0.038 0.028,0.093 0.028,0.167c-0.445,0.297 -0.899,0.575 -1.362,0.834c-0.463,0.259 -0.88,0.574 -1.25,0.944c-0.333,0.371 -0.621,0.788 -0.861,1.25c-0.242,0.464 -0.325,0.973 -0.25,1.528c0.852,0.186 1.703,0.344 2.556,0.473c0.852,0.13 1.741,0.269 2.667,0.416l1.056,4.501c0,0.371 -0.056,0.704 -0.167,1.001c-0.111,0.297 -0.241,0.611 -0.389,0.944c-0.148,0.334 -0.306,0.714 -0.472,1.139c-0.167,0.427 -0.325,0.936 -0.472,1.529l-0.612,2.667Z" style="fill:#00113a;fill-rule:nonzero;"/><path d="M133.398,96.596c0.519,-0.741 1.009,-1.389 1.473,-1.945c0.463,-0.555 0.99,-1.018 1.583,-1.389c-0.111,0.667 -0.25,1.222 -0.416,1.667c-0.167,0.444 -0.334,0.853 -0.5,1.222c-0.167,0.371 -0.344,0.732 -0.529,1.084c-0.185,0.353 -0.371,0.75 -0.555,1.194c-0.63,0.631 -1.26,1.066 -1.89,1.307c-0.63,0.241 -1.25,0.342 -1.861,0.305c-0.612,-0.036 -1.214,-0.185 -1.806,-0.445c-0.594,-0.258 -1.131,-0.555 -1.611,-0.889c-0.334,-0.814 -0.417,-1.75 -0.251,-2.806c0.167,-1.055 0.407,-2.083 0.722,-3.084c0.315,-1 0.62,-1.889 0.917,-2.667c0.296,-0.778 0.445,-1.296 0.445,-1.556c-0.186,0.186 -0.51,0.611 -0.973,1.278c-0.463,0.667 -0.954,1.39 -1.472,2.167c-0.519,0.778 -1.001,1.492 -1.445,2.14c-0.444,0.648 -0.704,1.028 -0.777,1.139l-2.501,2.723c-0.074,0.075 -0.186,0.158 -0.333,0.25c-0.149,0.093 -0.297,0.158 -0.446,0.194c-0.37,0.038 -0.759,-0.028 -1.167,-0.194c-0.407,-0.167 -0.787,-0.389 -1.138,-0.667c-0.353,-0.278 -0.649,-0.592 -0.889,-0.945c-0.242,-0.352 -0.381,-0.712 -0.417,-1.083c-0.075,-0.63 -0.084,-1.287 -0.028,-1.973c0.055,-0.685 0.101,-1.342 0.139,-1.973c0,-0.184 0.018,-0.481 0.056,-0.888c0.036,-0.408 0.083,-0.853 0.139,-1.334c0.055,-0.481 0.101,-0.945 0.138,-1.39c0.037,-0.444 0.075,-0.796 0.112,-1.055c-0.52,0.333 -1.01,0.843 -1.473,1.528c-0.464,0.686 -0.787,1.214 -0.972,1.584c-0.444,0.852 -0.954,1.639 -1.528,2.361c-0.575,0.723 -1.103,1.492 -1.584,2.306c-0.222,0.371 -0.482,0.723 -0.778,1.056c-0.297,0.333 -0.593,0.667 -0.889,1c-0.186,0.222 -0.333,0.454 -0.444,0.695c-0.112,0.241 -0.223,0.463 -0.334,0.666c-0.111,0.205 -0.241,0.344 -0.389,0.417c-0.148,0.075 -0.333,0.056 -0.556,-0.055l-1.055,-0.445c-0.964,-0.407 -1.603,-0.897 -1.917,-1.472c-0.316,-0.574 -0.417,-1.398 -0.306,-2.473c0.036,-0.333 0.064,-0.667 0.084,-1c0.018,-0.334 0.027,-0.667 0.027,-1c0,-0.037 0.056,-0.25 0.167,-0.639c0.111,-0.39 0.129,-0.64 0.056,-0.75c0.184,-0.963 0.323,-1.936 0.416,-2.918c0.092,-0.981 0.157,-2.028 0.194,-3.14c0.037,-0.147 0.047,-0.296 0.028,-0.444c-0.019,-0.147 -0.028,-0.314 -0.028,-0.5c0.741,-0.407 1.473,-0.537 2.196,-0.389c0.722,0.148 1.453,0.297 2.195,0.444c0.333,0.075 0.536,0.26 0.611,0.556c0.074,0.297 0.111,0.63 0.111,1c-0.075,1.149 -0.131,2.298 -0.167,3.446c-0.037,1.148 -0.092,2.371 -0.167,3.667l1.167,-1.445l4.39,-4.834c1.222,-1.334 2.815,-1.704 4.779,-1.111c0.222,0.741 0.351,1.491 0.388,2.25c0.038,0.76 0.019,1.528 -0.055,2.306c-0.074,0.778 -0.166,1.566 -0.278,2.362c-0.111,0.797 -0.167,1.603 -0.167,2.417l1,-0.889c0.297,-0.37 0.658,-0.787 1.084,-1.251c0.426,-0.463 0.852,-0.935 1.279,-1.417c0.425,-0.481 0.842,-0.953 1.25,-1.417c0.407,-0.462 0.759,-0.879 1.055,-1.25c0.185,-0.407 0.463,-0.786 0.834,-1.139c0.37,-0.351 0.768,-0.648 1.195,-0.889c0.425,-0.241 0.851,-0.416 1.278,-0.528c0.426,-0.111 0.806,-0.111 1.139,0c0.592,0.222 0.834,0.649 0.722,1.278c-0.221,1.297 -0.444,2.584 -0.667,3.862c-0.221,1.278 -0.463,2.566 -0.721,3.862c-0.112,0.593 -0.177,1.195 -0.196,1.806c-0.018,0.611 0.14,1.25 0.473,1.917c0.334,-0.222 0.647,-0.518 0.944,-0.889c0.297,-0.37 0.593,-0.667 0.89,-0.889" style="fill:#00113a;fill-rule:nonzero;"/><path d="M141.678,87.983c2.63,-2.63 4.297,-4.797 5.001,-6.501c-0.741,-0.223 -1.214,-0.324 -1.417,-0.306c-0.204,0.019 -0.491,0.232 -0.861,0.639c-0.816,0.853 -1.464,1.76 -1.946,2.723c-0.481,0.964 -0.833,1.964 -1.055,3c0,0.075 0.028,0.149 0.084,0.222c0.054,0.075 0.119,0.149 0.194,0.223m7.445,-7.335c0.853,0.259 1.186,0.722 1.001,1.389c-0.075,0.186 -0.139,0.361 -0.194,0.528c-0.056,0.167 -0.14,0.343 -0.251,0.528c-0.814,1.408 -1.76,2.76 -2.833,4.057c-1.075,1.296 -2.278,2.537 -3.612,3.722c-0.482,0.445 -0.954,0.908 -1.417,1.389c-0.464,0.482 -0.862,0.982 -1.195,1.501c-0.222,0.37 -0.361,0.769 -0.417,1.195c-0.055,0.426 -0.084,0.842 -0.084,1.25c0,0.63 0.242,1.315 0.723,2.056c0.481,0.741 1.056,1.315 1.723,1.722c0.296,-0.222 0.694,-0.508 1.194,-0.861c0.501,-0.351 0.898,-0.657 1.195,-0.917c1.185,-1.074 2.37,-2.028 3.557,-2.862c1.185,-0.833 2.074,-1.564 2.667,-2.195c-0.075,0.409 -0.167,0.816 -0.278,1.223c-0.075,0.334 -0.176,0.704 -0.306,1.111c-0.13,0.409 -0.287,0.76 -0.472,1.056c-0.593,0.964 -1.315,1.788 -2.167,2.473c-0.853,0.686 -1.816,1.417 -2.889,2.195c-0.631,0.444 -1.27,0.667 -1.917,0.667c-0.65,0 -1.4,-0.112 -2.251,-0.334c-1.26,-0.333 -2.409,-0.944 -3.446,-1.833c-1.037,-0.89 -1.778,-1.89 -2.222,-3.001c-0.075,-0.148 -0.12,-0.306 -0.139,-0.473c-0.019,-0.166 -0.065,-0.379 -0.139,-0.639c-0.038,-0.369 -0.075,-0.74 -0.111,-1.111c-0.037,-0.37 -0.047,-0.759 -0.028,-1.167c0.018,-0.407 0.064,-0.87 0.139,-1.389c0.074,-0.518 0.222,-1.13 0.445,-1.834c0.296,-1.148 0.703,-2.278 1.222,-3.389c0.519,-1.112 1.019,-2.223 1.5,-3.334c0.185,-0.408 0.398,-0.815 0.639,-1.223c0.241,-0.407 0.491,-0.814 0.751,-1.222c0.147,-0.222 0.313,-0.435 0.5,-0.639c0.185,-0.203 0.369,-0.398 0.556,-0.584c0.703,-0.741 1.684,-1 2.944,-0.778c0.297,0.075 0.611,0.111 0.945,0.111c0.333,0 0.667,0.038 1,0.112c0.445,0.074 0.796,0.186 1.056,0.333c0.814,0.519 1.686,0.908 2.611,1.167" style="fill:#00113a;fill-rule:nonzero;"/><path d="M168.628,99.541c0.37,-0.852 0.703,-1.722 1,-2.611c0.297,-0.889 0.593,-1.779 0.89,-2.668l-0.167,-0.722c-0.186,-0.629 -0.306,-1.546 -0.362,-2.75c-0.055,-1.204 0.009,-2.454 0.195,-3.751c-0.409,-0.519 -0.742,-1.065 -1,-1.64c-0.26,-0.574 -0.389,-1.231 -0.389,-1.972c-0.186,0 -0.334,-0.019 -0.444,-0.056c-0.076,0.111 -0.149,0.213 -0.223,0.306c-0.074,0.093 -0.13,0.194 -0.167,0.305c-0.667,2.001 -1.167,4.038 -1.5,6.113c-0.333,2.075 -0.537,4.205 -0.611,6.39c-0.037,0.519 -0.019,1.056 0.055,1.612c0.075,0.555 0.167,1.111 0.278,1.667c0.037,0.185 0.13,0.388 0.278,0.61c0.147,0.223 0.314,0.372 0.5,0.445c0.147,0.074 0.324,0.056 0.528,-0.055c0.203,-0.112 0.379,-0.223 0.528,-0.334c0.296,-0.222 0.5,-0.518 0.611,-0.889m4.334,-4.445c0.148,0.148 0.297,0.222 0.445,0.222c0.259,0 0.509,-0.064 0.75,-0.194c0.241,-0.13 0.5,-0.296 0.778,-0.5c0.278,-0.204 0.592,-0.426 0.945,-0.667c0.352,-0.241 0.786,-0.473 1.306,-0.695c-0.076,0.408 -0.204,0.853 -0.389,1.334c-0.187,0.482 -0.594,0.964 -1.223,1.445c-0.593,0.519 -1.084,0.861 -1.472,1.027c-0.389,0.167 -0.899,0.14 -1.529,-0.083c-0.074,0 -0.13,-0.018 -0.167,-0.055c-0.11,0.407 -0.221,0.805 -0.333,1.194c-0.111,0.389 -0.259,0.788 -0.444,1.195c-0.297,0.742 -0.687,1.427 -1.167,2.056c-0.482,0.629 -1.223,0.963 -2.223,1c-1.667,0.037 -3.242,-0.482 -4.723,-1.556c-0.482,-0.333 -0.843,-0.75 -1.083,-1.25c-0.242,-0.5 -0.381,-1.028 -0.417,-1.584l0,-5.278c0,-0.186 -0.01,-0.352 -0.029,-0.5c-0.018,-0.148 -0.027,-0.315 -0.027,-0.501l0.333,-3.556c0.297,-1.704 0.695,-3.352 1.195,-4.945c0.5,-1.593 1.102,-3.168 1.806,-4.724l0.5,-0.834c0.481,-1 1.334,-1.351 2.557,-1.055c0.666,0.186 1.341,0.352 2.027,0.5c0.686,0.148 1.38,0.297 2.084,0.445c0,0.074 0.009,0.13 0.028,0.166c0.018,0.038 0.028,0.093 0.028,0.167c-0.445,0.297 -0.899,0.575 -1.362,0.834c-0.464,0.259 -0.88,0.574 -1.25,0.944c-0.334,0.371 -0.621,0.788 -0.861,1.25c-0.241,0.464 -0.325,0.973 -0.25,1.528c0.852,0.186 1.703,0.344 2.556,0.473c0.851,0.13 1.741,0.269 2.668,0.416l1.055,4.501c0,0.371 -0.055,0.704 -0.167,1.001c-0.111,0.297 -0.241,0.611 -0.388,0.944c-0.149,0.334 -0.306,0.714 -0.473,1.139c-0.167,0.427 -0.325,0.936 -0.473,1.529l-0.611,2.667Z" style="fill:#00113a;fill-rule:nonzero;"/><path d="M190.632,98.43c0.74,-0.556 1.546,-1.342 2.417,-2.361c0.87,-1.019 1.62,-1.954 2.251,-2.806c0.073,1.519 -0.093,2.806 -0.5,3.861c-0.408,1.056 -0.89,1.899 -1.445,2.529c-1.037,0.926 -2.037,1.286 -3,1.083c-0.964,-0.203 -1.927,-0.713 -2.89,-1.528c-0.445,-0.333 -0.704,-0.759 -0.778,-1.278c-0.186,-0.963 -0.325,-1.898 -0.417,-2.806c-0.093,-0.907 0.101,-1.787 0.584,-2.639l1.5,-3.168c0.258,-0.592 0.463,-1.222 0.611,-1.889c0.147,-0.667 0.129,-1.445 -0.056,-2.334c-0.297,0.297 -0.555,0.528 -0.777,0.694c-0.223,0.167 -0.408,0.344 -0.556,0.529c-1.298,2 -2.603,3.991 -3.918,5.973c-1.315,1.982 -2.454,4.103 -3.417,6.363c-0.148,0.297 -0.305,0.592 -0.472,0.888c-0.167,0.297 -0.343,0.594 -0.529,0.889c-1,0.038 -1.861,-0.23 -2.584,-0.805c-0.721,-0.574 -1.102,-1.324 -1.138,-2.251c-0.036,-0.629 0,-1.546 0.111,-2.75c0.111,-1.204 0.24,-2.417 0.389,-3.64c0.147,-1.445 0.334,-2.963 0.555,-4.556c0.185,-0.148 0.279,-0.352 0.279,-0.612c0,-0.259 0.017,-0.518 0.055,-0.778c0,-0.147 0.008,-0.361 0.028,-0.639c0.018,-0.278 0.046,-0.546 0.083,-0.805c0.037,-0.259 0.093,-0.5 0.167,-0.723c0.074,-0.222 0.147,-0.37 0.222,-0.444c0.074,-0.074 0.268,-0.12 0.583,-0.139c0.315,-0.018 0.648,0.019 1,0.111c0.352,0.093 0.676,0.222 0.973,0.389c0.296,0.167 0.463,0.417 0.5,0.75l0.111,2.167c-0.185,0.445 -0.25,0.936 -0.194,1.473c0.056,0.537 0.046,1.065 -0.028,1.584c-0.074,0.444 -0.158,0.88 -0.25,1.305c-0.093,0.426 -0.176,0.862 -0.25,1.306l0.278,0.223c0.148,-0.148 0.296,-0.269 0.444,-0.362c0.148,-0.092 0.278,-0.231 0.389,-0.417c0.852,-1.296 1.807,-2.509 2.862,-3.639c1.056,-1.13 2.176,-2.195 3.362,-3.195c0.518,-0.445 1.13,-0.759 1.834,-0.945c0.518,-0.111 0.934,-0.064 1.25,0.139c0.314,0.204 0.657,0.528 1.028,0.972c0.407,0.52 0.657,1.038 0.75,1.556c0.092,0.519 0.064,1.093 -0.083,1.723c-0.297,1.334 -0.547,2.695 -0.75,4.084c-0.204,1.389 -0.548,2.732 -1.028,4.029c-0.186,0.408 -0.297,0.861 -0.334,1.361c-0.037,0.5 0.222,1.01 0.778,1.528" style="fill:#00113a;fill-rule:nonzero;"/><path d="M200.523,96.93c0.407,0.408 0.639,1.065 0.694,1.973c0.056,0.908 -0.121,2.194 -0.527,3.861c-0.334,1 -0.677,1.815 -1.028,2.445c-0.353,0.63 -0.704,1.158 -1.056,1.584c-0.353,0.426 -0.723,0.768 -1.111,1.028c-0.391,0.259 -0.788,0.537 -1.196,0.834c-0.258,0.185 -0.547,0.333 -0.862,0.444c-0.314,0.111 -0.638,0.203 -0.971,0.278c-0.222,0.036 -0.482,-0.056 -0.779,-0.278c-0.222,-0.259 -0.333,-0.603 -0.333,-1.028c0,-0.426 0.111,-0.787 0.333,-1.083c0.185,-0.223 0.398,-0.417 0.639,-0.584c0.241,-0.167 0.491,-0.343 0.751,-0.528c0.296,-0.186 0.591,-0.389 0.888,-0.611c0.296,-0.222 0.481,-0.538 0.556,-0.945c-0.741,-0.666 -1.223,-1.408 -1.444,-2.223c-0.223,-0.814 -0.27,-1.62 -0.14,-2.417c0.13,-0.796 0.398,-1.518 0.806,-2.167c0.407,-0.647 0.889,-1.139 1.445,-1.472c0.814,-0.519 1.463,-0.713 1.944,-0.584c0.482,0.131 0.946,0.621 1.39,1.473" style="fill:#00113a;fill-rule:nonzero;"/><path d="M120.867,165.611c0.63,-0.925 1.463,-1.907 2.501,-2.944c1.036,-1.037 2.111,-1.927 3.223,-2.668c-0.482,1.112 -0.927,2.075 -1.334,2.889c-0.408,0.816 -0.806,1.538 -1.195,2.167c-0.388,0.631 -0.75,1.196 -1.084,1.696c-0.333,0.5 -0.648,0.99 -0.944,1.472c-0.371,0.445 -0.806,0.768 -1.306,0.972c-0.5,0.203 -1,0.269 -1.5,0.195c-0.5,-0.075 -0.972,-0.259 -1.417,-0.555c-0.445,-0.298 -0.798,-0.723 -1.055,-1.279c-0.223,-0.407 -0.409,-0.842 -0.556,-1.305c-0.149,-0.463 -0.333,-0.992 -0.556,-1.584c-0.333,0.555 -0.639,1.075 -0.917,1.555c-0.277,0.483 -0.527,0.964 -0.75,1.446c-0.519,1.111 -1.093,1.758 -1.722,1.944c-0.631,0.186 -1.409,0.24 -2.334,0.167c-0.742,-0.075 -1.427,-0.26 -2.056,-0.556c-0.631,-0.297 -1.149,-0.797 -1.556,-1.5c-0.038,-0.075 -0.084,-0.342 -0.139,-0.806c-0.055,-0.462 -0.103,-1.018 -0.139,-1.667c-0.038,-0.648 -0.047,-1.342 -0.028,-2.083c0.018,-0.742 0.084,-1.408 0.195,-2.001c0.407,-1.741 0.861,-3.148 1.361,-4.223c0.5,-1.074 0.991,-2.112 1.473,-3.112c0.185,-0.37 0.37,-0.741 0.555,-1.111c0.185,-0.37 0.389,-0.723 0.612,-1.056c0.369,-0.592 0.925,-0.87 1.667,-0.834c0.629,0.075 1.24,0.103 1.833,0.084c0.592,-0.018 1.204,0.009 1.834,0.083c0.407,0.037 0.806,0.111 1.194,0.222c0.389,0.111 0.787,0.242 1.195,0.389c0.111,0.075 0.213,0.186 0.305,0.334c0.093,0.148 0.232,0.371 0.417,0.667c-0.481,0.074 -0.898,0.148 -1.25,0.222c-0.352,0.074 -0.694,0.092 -1.028,0.055c-0.481,-0.036 -0.871,0.037 -1.166,0.223c-0.297,0.186 -0.593,0.481 -0.89,0.889c-0.519,0.778 -0.954,1.593 -1.305,2.445c-0.353,0.852 -0.677,1.741 -0.973,2.667c-0.297,0.926 -0.537,1.844 -0.722,2.75c-0.186,0.908 -0.315,1.844 -0.389,2.807l0,1.611c0.258,-0.223 0.463,-0.397 0.611,-0.527c0.147,-0.13 0.259,-0.269 0.334,-0.417c0.518,-0.852 1,-1.704 1.444,-2.557c0.445,-0.852 0.926,-1.685 1.445,-2.5c0.445,-0.704 0.907,-1.38 1.389,-2.028c0.481,-0.648 0.963,-1.287 1.445,-1.917c0.407,-0.593 0.925,-0.815 1.555,-0.667c0.148,0.037 0.287,0.047 0.417,0.028c0.129,-0.019 0.269,-0.009 0.417,0.027c1.185,0.075 1.889,0.287 2.112,0.64c0.222,0.352 0.147,1.083 -0.223,2.194c-0.333,1 -0.583,2.02 -0.75,3.057c-0.166,1.037 -0.287,2.093 -0.361,3.167c0,0.111 0.008,0.231 0.028,0.361c0.019,0.13 0.046,0.287 0.083,0.472" style="fill:#00113a;fill-rule:nonzero;"/><path d="M149.595,128.603c0.037,-0.074 0.027,-0.204 -0.027,-0.389c-0.055,-0.185 -0.121,-0.296 -0.196,-0.334c-0.148,-0.036 -0.314,-0.046 -0.5,-0.027c-0.185,0.019 -0.314,0.065 -0.388,0.139c-0.297,0.407 -0.612,0.805 -0.944,1.194c-0.334,0.389 -0.576,0.825 -0.722,1.306c-0.409,1.26 -0.77,2.52 -1.084,3.778c-0.315,1.26 -0.639,2.539 -0.973,3.835c0,0.037 0.057,0.111 0.166,0.222l0.223,-0.111c0.556,-0.703 1.029,-1.453 1.418,-2.251c0.388,-0.796 0.74,-1.611 1.054,-2.445c0.315,-0.833 0.621,-1.667 0.918,-2.5c0.295,-0.834 0.647,-1.639 1.055,-2.417m-9.945,29.284c0.146,-0.074 0.24,-0.112 0.277,-0.112l-0.166,-0.222l-0.057,0c-0.037,0 -0.054,0.019 -0.054,0.056l0,0.278Zm-0.112,-15.003c0.075,-0.037 0.119,-0.074 0.139,-0.112c0.018,-0.036 0.064,-0.092 0.139,-0.166l-0.278,-0.223l-0.222,0.334l0.111,0.111c0.035,0.037 0.074,0.056 0.111,0.056m-1.111,13.78c0,-0.074 -0.037,-0.147 -0.111,-0.222l-0.112,0c-0.037,0 -0.056,0.019 -0.056,0.056c0,0.037 0.009,0.074 0.029,0.111c0.018,0.037 0.027,0.093 0.027,0.166l0.223,-0.111Zm-0.111,2.779c-0.149,-0.297 -0.278,-0.501 -0.389,-0.611c0,-0.037 -0.037,-0.037 -0.111,0c-0.075,0.037 -0.149,0.092 -0.223,0.166c0.074,0.075 0.148,0.167 0.223,0.278c0.074,0.111 0.146,0.222 0.222,0.333l0.278,-0.166Zm-2.28,-5.057c0.186,-0.407 0.307,-0.833 0.362,-1.278c0.056,-0.444 0.158,-0.945 0.306,-1.501c-0.927,0.223 -1.714,0.538 -2.361,0.945c-0.648,0.408 -1.141,0.945 -1.473,1.612c-0.63,1.148 -1.232,2.297 -1.806,3.445c-0.574,1.149 -1.01,2.371 -1.306,3.667c-0.075,0.371 -0.194,0.722 -0.361,1.056c-0.167,0.334 -0.288,0.667 -0.362,1c-0.185,0.742 -0.371,1.492 -0.555,2.251c-0.186,0.76 -0.204,1.583 -0.056,2.473c0.185,-0.223 0.352,-0.409 0.5,-0.556c0.148,-0.147 0.259,-0.314 0.334,-0.5c1.148,-2.111 2.286,-4.214 3.417,-6.307c1.129,-2.092 2.25,-4.195 3.361,-6.307m15.338,-27.95c0.666,0.222 1.065,0.5 1.194,0.833c0.131,0.334 0.029,0.815 -0.305,1.445c-0.742,1.371 -1.482,2.714 -2.223,4.029c-0.742,1.315 -1.465,2.658 -2.168,4.028c-0.591,1.149 -1.166,2.297 -1.722,3.445c-0.555,1.149 -1.037,2.334 -1.444,3.556c-0.556,1.779 -0.816,3.632 -0.779,5.558c0.037,0.555 -0.047,1.12 -0.25,1.694c-0.203,0.575 -0.379,1.159 -0.527,1.75c-0.075,0.334 -0.176,0.659 -0.305,0.973c-0.131,0.315 -0.158,0.621 -0.084,0.917c0.186,0.889 0.186,1.75 0,2.584c-0.186,0.833 -0.316,1.676 -0.389,2.528l0,0.056c0.073,1 0.166,2.01 0.278,3.028c0.111,1.019 0.222,2.083 0.334,3.195c0.183,-0.148 0.351,-0.268 0.5,-0.361c0.146,-0.092 0.277,-0.195 0.388,-0.305c0.778,-1.112 1.555,-2.093 2.334,-2.946c0.778,-0.851 1.797,-1.703 3.057,-2.556c-0.408,1.112 -0.799,2.066 -1.168,2.862c-0.371,0.797 -0.723,1.5 -1.055,2.111c-0.334,0.612 -0.677,1.177 -1.029,1.696c-0.352,0.518 -0.713,1.073 -1.084,1.667c-0.332,0.555 -0.686,1.111 -1.055,1.667c-0.371,0.555 -0.742,1.091 -1.111,1.611c-0.074,0.073 -0.176,0.157 -0.307,0.25c-0.129,0.092 -0.267,0.139 -0.416,0.139c-0.777,0.036 -1.547,0.064 -2.306,0.083c-0.76,0.018 -1.528,-0.12 -2.305,-0.416c-0.297,-0.667 -0.557,-1.334 -0.779,-2.001c-0.186,-0.593 -0.371,-1.223 -0.555,-1.889c-0.186,-0.667 -0.297,-1.314 -0.334,-1.945l0,-1c0,-0.334 -0.019,-0.667 -0.055,-1c0,-0.297 -0.009,-0.565 -0.029,-0.806c-0.018,-0.241 -0.047,-0.51 -0.082,-0.807c-0.074,0 -0.131,-0.007 -0.168,-0.027c-0.037,-0.018 -0.092,-0.027 -0.166,-0.027l-0.555,0.833l-2.668,5.723c-0.482,1 -1.205,1.63 -2.168,1.89c-0.852,0.222 -1.629,0.258 -2.333,0.11c-0.704,-0.148 -1.306,-0.444 -1.806,-0.888c-0.5,-0.445 -0.862,-1 -1.083,-1.667c-0.223,-0.667 -0.279,-1.426 -0.167,-2.279c0.408,-2.63 1.018,-5.158 1.834,-7.585c0.814,-2.425 2,-4.751 3.555,-6.973c0.631,-0.852 1.344,-1.343 2.141,-1.473c0.795,-0.129 1.619,-0.157 2.473,-0.083c0.629,0.037 1.267,0.111 1.916,0.222c0.648,0.111 1.343,0.222 2.084,0.333c0.148,-0.258 0.213,-0.518 0.195,-0.778c-0.02,-0.258 0.064,-0.536 0.25,-0.833c0.074,-0.148 0.147,-0.296 0.223,-0.444c0.072,-0.148 0.072,-0.259 0,-0.334c-0.297,-0.629 -0.391,-1.259 -0.28,-1.889c0.112,-0.629 0.186,-1.278 0.223,-1.945c-0.26,-0.074 -0.408,-0.12 -0.443,-0.139c-0.039,-0.018 -0.188,-0.064 -0.446,-0.139l0,-0.445c0.075,-0.295 0.112,-0.518 0.112,-0.666c-0.112,-2.112 0.146,-4.14 0.777,-6.085c0.629,-1.945 1.297,-3.862 2,-5.751c0.371,-0.963 0.871,-1.806 1.5,-2.528c0.631,-0.723 1.316,-1.417 2.057,-2.084c0.222,-0.185 0.509,-0.352 0.861,-0.5c0.352,-0.148 0.676,-0.203 0.973,-0.167c1.556,0.149 3.185,0.464 4.89,0.945" style="fill:#00113a;fill-rule:nonzero;"/><path d="M172.211,128.603c0.036,-0.074 0.027,-0.204 -0.027,-0.389c-0.056,-0.185 -0.121,-0.296 -0.196,-0.334c-0.148,-0.036 -0.314,-0.046 -0.5,-0.027c-0.185,0.019 -0.314,0.065 -0.388,0.139c-0.297,0.407 -0.612,0.805 -0.945,1.194c-0.334,0.389 -0.575,0.825 -0.722,1.306c-0.409,1.26 -0.77,2.52 -1.084,3.778c-0.315,1.26 -0.639,2.539 -0.972,3.835c0,0.037 0.056,0.111 0.166,0.222l0.223,-0.111c0.555,-0.703 1.028,-1.453 1.417,-2.251c0.388,-0.796 0.74,-1.611 1.055,-2.445c0.315,-0.833 0.62,-1.667 0.917,-2.5c0.296,-0.834 0.648,-1.639 1.056,-2.417m-9.946,29.284c0.147,-0.074 0.24,-0.112 0.277,-0.112l-0.166,-0.222l-0.056,0c-0.038,0 -0.055,0.019 -0.055,0.056l0,0.278Zm-0.112,-15.003c0.075,-0.037 0.12,-0.074 0.139,-0.112c0.019,-0.036 0.065,-0.092 0.139,-0.166l-0.278,-0.223l-0.222,0.334l0.111,0.111c0.036,0.037 0.074,0.056 0.111,0.056m-1.111,13.78c0,-0.074 -0.037,-0.147 -0.111,-0.222l-0.112,0c-0.037,0 -0.055,0.019 -0.055,0.056c0,0.037 0.009,0.074 0.028,0.111c0.019,0.037 0.027,0.093 0.027,0.166l0.223,-0.111Zm-0.111,2.779c-0.149,-0.297 -0.278,-0.501 -0.389,-0.611c0,-0.037 -0.037,-0.037 -0.111,0c-0.074,0.037 -0.149,0.092 -0.223,0.166c0.074,0.075 0.149,0.167 0.223,0.278c0.074,0.111 0.147,0.222 0.222,0.333l0.278,-0.166Zm-2.279,-5.057c0.186,-0.407 0.306,-0.833 0.362,-1.278c0.055,-0.444 0.157,-0.945 0.305,-1.501c-0.926,0.223 -1.713,0.538 -2.361,0.945c-0.648,0.408 -1.14,0.945 -1.473,1.612c-0.63,1.148 -1.232,2.297 -1.805,3.445c-0.575,1.149 -1.01,2.371 -1.307,3.667c-0.074,0.371 -0.194,0.722 -0.36,1.056c-0.167,0.334 -0.288,0.667 -0.362,1c-0.186,0.742 -0.371,1.492 -0.555,2.251c-0.187,0.76 -0.204,1.583 -0.056,2.473c0.185,-0.223 0.352,-0.409 0.5,-0.556c0.148,-0.147 0.259,-0.314 0.333,-0.5c1.149,-2.111 2.287,-4.214 3.418,-6.307c1.129,-2.092 2.25,-4.195 3.361,-6.307m15.337,-27.95c0.667,0.222 1.065,0.5 1.195,0.833c0.13,0.334 0.028,0.815 -0.306,1.445c-0.741,1.371 -1.481,2.714 -2.223,4.029c-0.741,1.315 -1.464,2.658 -2.167,4.028c-0.592,1.149 -1.167,2.297 -1.722,3.445c-0.556,1.149 -1.037,2.334 -1.445,3.556c-0.555,1.779 -0.815,3.632 -0.778,5.558c0.036,0.555 -0.047,1.12 -0.25,1.694c-0.204,0.575 -0.38,1.159 -0.527,1.75c-0.076,0.334 -0.177,0.659 -0.306,0.973c-0.131,0.315 -0.158,0.621 -0.084,0.917c0.186,0.889 0.186,1.75 0,2.584c-0.186,0.833 -0.315,1.676 -0.389,2.528l0,0.056c0.074,1 0.167,2.01 0.278,3.028c0.111,1.019 0.222,2.083 0.334,3.195c0.184,-0.148 0.351,-0.268 0.5,-0.361c0.147,-0.092 0.277,-0.195 0.388,-0.305c0.779,-1.112 1.556,-2.093 2.334,-2.946c0.779,-0.851 1.797,-1.703 3.057,-2.556c-0.408,1.112 -0.798,2.066 -1.167,2.862c-0.371,0.797 -0.723,1.5 -1.056,2.111c-0.334,0.612 -0.676,1.177 -1.028,1.696c-0.353,0.518 -0.714,1.073 -1.084,1.667c-0.333,0.555 -0.686,1.111 -1.056,1.667c-0.37,0.555 -0.741,1.091 -1.111,1.611c-0.074,0.073 -0.176,0.157 -0.306,0.25c-0.13,0.092 -0.268,0.139 -0.417,0.139c-0.777,0.036 -1.546,0.064 -2.305,0.083c-0.76,0.018 -1.529,-0.12 -2.306,-0.416c-0.297,-0.667 -0.556,-1.334 -0.778,-2.001c-0.186,-0.593 -0.371,-1.223 -0.556,-1.889c-0.185,-0.667 -0.297,-1.314 -0.333,-1.945l0,-1c0,-0.334 -0.019,-0.667 -0.056,-1c0,-0.297 -0.009,-0.565 -0.028,-0.806c-0.018,-0.241 -0.047,-0.51 -0.083,-0.807c-0.074,0 -0.13,-0.007 -0.167,-0.027c-0.037,-0.018 -0.093,-0.027 -0.166,-0.027l-0.556,0.833l-2.668,5.723c-0.481,1 -1.204,1.63 -2.167,1.89c-0.852,0.222 -1.63,0.258 -2.334,0.11c-0.704,-0.148 -1.305,-0.444 -1.805,-0.888c-0.5,-0.445 -0.862,-1 -1.084,-1.667c-0.222,-0.667 -0.278,-1.426 -0.166,-2.279c0.408,-2.63 1.018,-5.158 1.834,-7.585c0.813,-2.425 2,-4.751 3.555,-6.973c0.63,-0.852 1.343,-1.343 2.14,-1.473c0.796,-0.129 1.62,-0.157 2.473,-0.083c0.63,0.037 1.268,0.111 1.917,0.222c0.647,0.111 1.343,0.222 2.084,0.333c0.147,-0.258 0.213,-0.518 0.194,-0.778c-0.019,-0.258 0.065,-0.536 0.25,-0.833c0.074,-0.148 0.148,-0.296 0.223,-0.444c0.073,-0.148 0.073,-0.259 0,-0.334c-0.297,-0.629 -0.39,-1.259 -0.279,-1.889c0.112,-0.629 0.186,-1.278 0.223,-1.945c-0.26,-0.074 -0.408,-0.12 -0.444,-0.139c-0.038,-0.018 -0.187,-0.064 -0.446,-0.139l0,-0.445c0.075,-0.295 0.112,-0.518 0.112,-0.666c-0.112,-2.112 0.147,-4.14 0.778,-6.085c0.629,-1.945 1.296,-3.862 2,-5.751c0.37,-0.963 0.87,-1.806 1.5,-2.528c0.63,-0.723 1.315,-1.417 2.057,-2.084c0.221,-0.185 0.508,-0.352 0.861,-0.5c0.352,-0.148 0.675,-0.203 0.973,-0.167c1.555,0.149 3.185,0.464 4.889,0.945" style="fill:#00113a;fill-rule:nonzero;"/><path d="M74.165,238.015c0,-0.26 0.009,-0.815 0.028,-1.667c0.018,-0.853 0.009,-1.732 -0.028,-2.64c-0.037,-0.907 -0.13,-1.703 -0.278,-2.388c-0.148,-0.686 -0.408,-1.01 -0.778,-0.973c-0.259,0.037 -0.519,0.472 -0.777,1.306c-0.26,0.833 -0.501,1.769 -0.723,2.805c-0.222,1.037 -0.426,2.029 -0.611,2.974c-0.186,0.944 -0.297,1.546 -0.333,1.806c-0.26,1.074 -0.548,2.407 -0.862,4.001c-0.315,1.591 -0.528,3.213 -0.639,4.862c-0.111,1.647 -0.019,3.213 0.278,4.695c0.296,1.481 0.925,2.648 1.889,3.5c0.667,-1.297 1.195,-2.704 1.584,-4.222c0.389,-1.52 0.675,-3.084 0.861,-4.696c0.185,-1.611 0.296,-3.214 0.333,-4.806c0.037,-1.594 0.056,-3.113 0.056,-4.557m4.89,-11.336c-0.297,0.815 -0.611,1.557 -0.945,2.223c-0.333,0.667 -0.667,1.269 -1,1.806c-0.333,0.537 -0.63,1.028 -0.889,1.472c-0.26,0.445 -0.426,0.854 -0.5,1.223c-0.111,0.704 -0.158,1.398 -0.139,2.084c0.018,0.685 0.074,1.37 0.166,2.055c0.093,0.686 0.176,1.38 0.25,2.084c0.075,0.703 0.093,1.408 0.056,2.112c-0.037,0.704 -0.065,1.584 -0.083,2.639c-0.019,1.056 -0.083,2.167 -0.195,3.334c-0.111,1.167 -0.278,2.343 -0.5,3.529c-0.222,1.185 -0.555,2.259 -1,3.223c-0.444,0.963 -1.009,1.75 -1.694,2.362c-0.687,0.611 -1.548,0.953 -2.584,1.028c-1.854,0.11 -3.224,-0.399 -4.112,-1.528c-0.889,-1.131 -1.445,-2.631 -1.668,-4.501c-0.222,-1.871 -0.203,-3.965 0.056,-6.28c0.259,-2.315 0.611,-4.584 1.056,-6.806c0.444,-2.223 0.898,-4.261 1.361,-6.113c0.463,-1.852 0.768,-3.259 0.917,-4.223c-0.333,0.631 -0.704,1.417 -1.111,2.361c-0.408,0.945 -0.862,1.881 -1.362,2.807c-0.5,0.925 -1.065,1.75 -1.695,2.472c-0.63,0.723 -1.333,1.176 -2.111,1.362c-1.075,0.258 -2,0.167 -2.778,-0.278c-0.779,-0.445 -1.417,-1.055 -1.917,-1.834c-0.501,-0.778 -0.881,-1.657 -1.139,-2.639c-0.259,-0.982 -0.408,-1.88 -0.445,-2.696c-0.074,-1.147 -0.009,-2.305 0.194,-3.472c0.204,-1.167 0.398,-2.324 0.584,-3.473c0.111,-0.63 0.24,-1.157 0.389,-1.584c0.147,-0.426 0.361,-0.74 0.639,-0.944c0.278,-0.203 0.647,-0.287 1.111,-0.25c0.463,0.037 1.065,0.185 1.806,0.444c0.704,0.223 1.176,0.5 1.417,0.833c0.241,0.334 0.351,0.714 0.333,1.14c-0.019,0.426 -0.11,0.888 -0.277,1.388c-0.167,0.501 -0.269,1.048 -0.306,1.64c-0.149,1.075 -0.259,2.158 -0.334,3.251c-0.074,1.093 -0.166,2.177 -0.277,3.25c-0.075,0.445 -0.139,0.89 -0.195,1.334c-0.055,0.444 -0.037,0.814 0.056,1.111c0.092,0.296 0.268,0.473 0.528,0.529c0.259,0.055 0.703,-0.103 1.333,-0.473c0.259,-0.148 0.5,-0.371 0.723,-0.667c0.222,-0.296 0.444,-0.62 0.666,-0.973c0.223,-0.351 0.417,-0.694 0.584,-1.027c0.167,-0.334 0.324,-0.63 0.473,-0.89c0.518,-0.851 1,-1.703 1.444,-2.555c0.445,-0.852 0.87,-1.723 1.278,-2.612c0.334,-0.741 0.584,-1.501 0.75,-2.278c0.167,-0.778 0.398,-1.518 0.695,-2.223c0.37,-0.778 0.879,-1.268 1.528,-1.472c0.648,-0.203 1.286,-0.195 1.917,0.027c0.63,0.223 1.167,0.64 1.612,1.25c0.444,0.611 0.647,1.344 0.611,2.195c0,0.409 -0.065,0.816 -0.195,1.223c-0.13,0.408 -0.241,0.815 -0.333,1.223c-0.093,0.408 -0.149,0.805 -0.167,1.194c-0.019,0.389 0.064,0.77 0.25,1.14c0.296,0.592 0.648,0.888 1.056,0.888c0.407,0 0.833,-0.138 1.278,-0.417c0.444,-0.277 0.907,-0.62 1.389,-1.028c0.481,-0.406 0.963,-0.74 1.445,-1" style="fill:#00113a;fill-rule:nonzero;"/><path d="M84.055,232.903c0.37,-0.852 0.704,-1.723 1,-2.611c0.296,-0.89 0.592,-1.779 0.889,-2.667l-0.166,-0.723c-0.186,-0.63 -0.306,-1.547 -0.362,-2.751c-0.055,-1.203 0.009,-2.453 0.195,-3.751c-0.408,-0.518 -0.742,-1.064 -1,-1.639c-0.26,-0.574 -0.389,-1.231 -0.389,-1.972c-0.186,0 -0.334,-0.019 -0.445,-0.056c-0.075,0.111 -0.148,0.214 -0.222,0.306c-0.075,0.093 -0.13,0.194 -0.167,0.305c-0.666,2 -1.166,4.038 -1.5,6.113c-0.333,2.075 -0.538,4.205 -0.611,6.39c-0.037,0.519 -0.019,1.056 0.055,1.612c0.074,0.555 0.167,1.111 0.278,1.667c0.037,0.185 0.13,0.388 0.278,0.611c0.147,0.222 0.314,0.37 0.5,0.444c0.147,0.074 0.324,0.056 0.528,-0.055c0.203,-0.112 0.379,-0.223 0.528,-0.333c0.296,-0.223 0.5,-0.519 0.611,-0.89m4.334,-4.445c0.148,0.148 0.296,0.222 0.445,0.222c0.259,0 0.509,-0.064 0.75,-0.194c0.241,-0.13 0.5,-0.297 0.778,-0.501c0.278,-0.203 0.592,-0.425 0.944,-0.666c0.353,-0.241 0.787,-0.473 1.307,-0.695c-0.075,0.408 -0.204,0.852 -0.39,1.334c-0.185,0.481 -0.592,0.964 -1.222,1.444c-0.593,0.52 -1.084,0.861 -1.472,1.028c-0.39,0.167 -0.899,0.139 -1.529,-0.083c-0.074,0 -0.13,-0.018 -0.166,-0.055c-0.112,0.408 -0.222,0.805 -0.334,1.194c-0.111,0.39 -0.259,0.788 -0.444,1.195c-0.297,0.742 -0.686,1.426 -1.167,2.056c-0.482,0.629 -1.223,0.963 -2.223,1c-1.667,0.036 -3.242,-0.481 -4.723,-1.556c-0.482,-0.334 -0.843,-0.75 -1.084,-1.25c-0.241,-0.5 -0.38,-1.028 -0.416,-1.584l0,-5.279c0,-0.185 -0.01,-0.352 -0.028,-0.5c-0.019,-0.147 -0.028,-0.314 -0.028,-0.5l0.334,-3.557c0.295,-1.703 0.694,-3.351 1.194,-4.945c0.5,-1.592 1.102,-3.167 1.806,-4.723l0.5,-0.834c0.481,-1 1.334,-1.351 2.556,-1.055c0.667,0.185 1.342,0.352 2.028,0.5c0.686,0.148 1.38,0.297 2.084,0.444c0,0.075 0.009,0.131 0.028,0.167c0.018,0.037 0.028,0.093 0.028,0.167c-0.445,0.297 -0.899,0.574 -1.362,0.833c-0.463,0.26 -0.88,0.575 -1.25,0.945c-0.333,0.371 -0.621,0.788 -0.861,1.25c-0.242,0.464 -0.325,0.973 -0.25,1.529c0.852,0.185 1.703,0.343 2.556,0.471c0.852,0.131 1.741,0.27 2.667,0.417l1.056,4.501c0,0.371 -0.056,0.704 -0.167,1c-0.111,0.297 -0.241,0.612 -0.389,0.946c-0.148,0.333 -0.306,0.713 -0.472,1.138c-0.167,0.427 -0.325,0.937 -0.472,1.529l-0.612,2.667Z" style="fill:#00113a;fill-rule:nonzero;"/><path d="M108.115,231.014c0.222,-0.223 0.518,-0.528 0.889,-0.917c0.37,-0.39 0.759,-0.787 1.167,-1.195c0.407,-0.408 0.824,-0.815 1.25,-1.223c0.425,-0.406 0.806,-0.74 1.139,-1c-0.333,0.89 -0.611,1.621 -0.833,2.195c-0.222,0.575 -0.436,1.076 -0.639,1.5c-0.204,0.427 -0.399,0.797 -0.584,1.112c-0.185,0.315 -0.389,0.658 -0.611,1.028c-0.593,0.741 -1.269,1.148 -2.028,1.223c-0.76,0.074 -1.565,-0.019 -2.417,-0.279c-1.445,-0.444 -2.26,-1.444 -2.445,-3c-0.037,-0.407 -0.084,-0.797 -0.139,-1.167c-0.056,-0.37 -0.176,-0.758 -0.361,-1.167c-0.112,0.186 -0.222,0.38 -0.334,0.583c-0.111,0.204 -0.204,0.417 -0.278,0.64c-0.222,0.556 -0.444,1.103 -0.667,1.639c-0.222,0.537 -0.426,1.084 -0.61,1.639c-0.223,0.778 -0.659,1.436 -1.307,1.973c-0.648,0.536 -1.389,0.897 -2.222,1.083c-0.834,0.186 -1.695,0.194 -2.584,0.028c-0.889,-0.167 -1.686,-0.565 -2.389,-1.195c-0.853,-0.777 -1.241,-1.778 -1.167,-3c0.036,-0.963 0.083,-1.908 0.139,-2.834c0.055,-0.926 0.119,-1.87 0.194,-2.834c0.036,-0.186 0.056,-0.39 0.056,-0.611l0,-0.723l1.389,-4.501c0.296,-1.036 0.601,-2.074 0.916,-3.111c0.315,-1.037 0.64,-2.074 0.973,-3.113c0.148,-0.48 0.278,-0.861 0.389,-1.138c0.111,-0.279 0.25,-0.482 0.417,-0.612c0.166,-0.129 0.379,-0.212 0.639,-0.25c0.259,-0.037 0.647,-0.074 1.167,-0.111c0.444,-0.036 0.833,-0.046 1.166,-0.027c0.334,0.018 0.64,0.054 0.917,0.11c0.278,0.056 0.556,0.14 0.834,0.25c0.278,0.111 0.62,0.278 1.028,0.501l-0.5,0.944c-0.075,0.186 -0.167,0.353 -0.278,0.5c-0.111,0.149 -0.186,0.316 -0.222,0.5c-0.26,1.667 -0.612,3.307 -1.056,4.918c-0.445,1.612 -0.871,3.251 -1.278,4.918c-0.149,0.666 -0.269,1.333 -0.361,2c-0.093,0.667 -0.195,1.316 -0.306,1.946c-0.037,0.258 -0.074,0.508 -0.111,0.75c-0.037,0.241 -0.093,0.491 -0.167,0.75c-0.408,1.111 -0.389,2.259 0.056,3.445c0.407,-0.223 0.694,-0.519 0.861,-0.89c0.167,-0.369 0.342,-0.74 0.528,-1.111c0.667,-1.519 1.315,-3.028 1.945,-4.528c0.629,-1.5 1.278,-3.01 1.945,-4.53c0.333,-0.74 0.657,-1.462 0.972,-2.167c0.314,-0.703 0.509,-1.48 0.584,-2.334c0.036,-0.295 0.147,-0.601 0.333,-0.916c0.185,-0.314 0.37,-0.62 0.556,-0.917c0.333,0.038 0.675,0.038 1.028,0c0.352,-0.037 0.712,-0.064 1.084,-0.084c0.369,-0.017 0.73,-0.008 1.083,0.029c0.352,0.037 0.731,0.148 1.139,0.333l-0.722,1.834c-0.149,0.408 -0.297,0.825 -0.445,1.25c-0.148,0.426 -0.242,0.843 -0.278,1.25c-0.111,2.334 -0.167,4.668 -0.167,7.002c0.037,0.555 0.112,1.121 0.223,1.694c0.111,0.575 0.203,1.158 0.278,1.751l-0.111,0.389c0.147,-0.074 0.258,-0.148 0.333,-0.222" style="fill:#00113a;fill-rule:nonzero;"/><path d="M125.23,212.565c1.296,-0.407 2.352,-0.092 3.166,0.945c0.333,0.409 0.509,0.853 0.528,1.333c0.018,0.483 -0.084,0.983 -0.305,1.501c-0.333,0.853 -0.666,1.723 -1.001,2.612c-0.332,0.888 -0.648,1.778 -0.944,2.667c-0.111,0.296 -0.324,0.722 -0.638,1.278c-0.316,0.556 -0.529,0.982 -0.64,1.278l0,1.167c-0.222,0 -0.444,-0.009 -0.666,-0.028c-0.223,-0.018 -0.427,-0.065 -0.611,-0.139c-0.964,-0.296 -1.566,-0.676 -1.807,-1.139c-0.241,-0.462 -0.213,-1.175 0.084,-2.139c0.296,-0.89 0.602,-1.778 0.917,-2.667c0.313,-0.89 0.619,-1.778 0.916,-2.668l0.501,-1.611c-0.408,0.111 -0.714,0.278 -0.917,0.5c-0.204,0.222 -0.381,0.464 -0.528,0.722c-1.037,1.593 -1.964,3.233 -2.779,4.918c-0.815,1.686 -1.482,3.454 -2,5.307c-0.297,1.037 -0.621,2.047 -0.972,3.028c-0.353,0.982 -0.714,1.973 -1.084,2.973c-0.186,0.408 -0.269,0.825 -0.25,1.25c0.018,0.427 0.176,0.843 0.472,1.251c-0.63,0.407 -1.277,0.629 -1.944,0.666c-0.667,0.037 -1.278,-0.074 -1.834,-0.333c-0.556,-0.26 -1.01,-0.649 -1.361,-1.167c-0.353,-0.519 -0.548,-1.148 -0.584,-1.89c-0.037,-0.592 0,-1.175 0.111,-1.75c0.111,-0.574 0.203,-1.157 0.278,-1.75l0.223,-1.945c0.11,-0.815 0.203,-1.528 0.277,-2.14c0.074,-0.61 0.148,-1.213 0.223,-1.805c0.073,-0.592 0.157,-1.213 0.25,-1.862c0.091,-0.647 0.212,-1.417 0.361,-2.305c0.036,-1.186 0.194,-2.363 0.472,-3.53c0.278,-1.166 0.546,-2.341 0.806,-3.528c0.185,-0.703 0.407,-1.139 0.667,-1.306c0.259,-0.167 0.759,-0.194 1.5,-0.083c0.63,0.112 1.101,0.242 1.417,0.389c0.314,0.148 0.638,0.389 0.972,0.723c-0.555,1.926 -1.001,3.861 -1.334,5.806c-0.333,1.945 -0.352,3.955 -0.055,6.03l2.278,-3.724c0.63,-1.036 1.241,-2.074 1.834,-3.111c0.592,-1.037 1.37,-1.946 2.334,-2.723c0.259,-0.186 0.527,-0.38 0.806,-0.584c0.277,-0.203 0.564,-0.342 0.861,-0.417" style="fill:#00113a;fill-rule:nonzero;"/><path d="M167.294,229.957c0.519,-0.74 1.009,-1.389 1.473,-1.944c0.463,-0.556 0.99,-1.019 1.583,-1.39c-0.111,0.667 -0.25,1.223 -0.416,1.667c-0.167,0.445 -0.334,0.853 -0.5,1.223c-0.167,0.371 -0.344,0.732 -0.529,1.084c-0.185,0.352 -0.371,0.75 -0.555,1.194c-0.63,0.631 -1.26,1.065 -1.89,1.306c-0.63,0.241 -1.25,0.343 -1.861,0.305c-0.612,-0.036 -1.214,-0.184 -1.806,-0.444c-0.593,-0.259 -1.131,-0.556 -1.611,-0.889c-0.334,-0.814 -0.417,-1.751 -0.25,-2.806c0.166,-1.056 0.407,-2.084 0.721,-3.084c0.315,-1 0.62,-1.889 0.917,-2.667c0.296,-0.779 0.445,-1.296 0.445,-1.556c-0.186,0.186 -0.509,0.611 -0.972,1.277c-0.464,0.667 -0.954,1.39 -1.473,2.168c-0.519,0.778 -1,1.492 -1.445,2.139c-0.444,0.648 -0.704,1.028 -0.777,1.14l-2.501,2.722c-0.074,0.075 -0.186,0.159 -0.333,0.25c-0.149,0.093 -0.297,0.159 -0.445,0.195c-0.371,0.037 -0.759,-0.028 -1.167,-0.195c-0.408,-0.167 -0.788,-0.388 -1.139,-0.667c-0.353,-0.277 -0.649,-0.591 -0.889,-0.944c-0.241,-0.352 -0.381,-0.713 -0.417,-1.084c-0.074,-0.629 -0.083,-1.286 -0.027,-1.973c0.055,-0.684 0.101,-1.341 0.138,-1.972c0,-0.185 0.019,-0.481 0.056,-0.889c0.036,-0.407 0.083,-0.852 0.139,-1.334c0.055,-0.48 0.101,-0.944 0.138,-1.389c0.038,-0.445 0.075,-0.797 0.112,-1.055c-0.52,0.334 -1.01,0.843 -1.473,1.528c-0.464,0.686 -0.787,1.214 -0.973,1.584c-0.444,0.852 -0.954,1.639 -1.527,2.361c-0.575,0.723 -1.102,1.493 -1.584,2.307c-0.223,0.37 -0.481,0.722 -0.778,1.056c-0.297,0.333 -0.593,0.667 -0.889,1c-0.185,0.222 -0.333,0.454 -0.444,0.694c-0.112,0.241 -0.223,0.464 -0.334,0.667c-0.111,0.204 -0.241,0.343 -0.389,0.417c-0.148,0.074 -0.333,0.056 -0.556,-0.056l-1.055,-0.444c-0.964,-0.407 -1.603,-0.898 -1.917,-1.473c-0.316,-0.574 -0.417,-1.398 -0.306,-2.472c0.036,-0.334 0.065,-0.667 0.083,-1c0.019,-0.334 0.028,-0.667 0.028,-1.001c0,-0.036 0.056,-0.25 0.166,-0.639c0.112,-0.389 0.13,-0.639 0.056,-0.75c0.186,-0.963 0.324,-1.936 0.417,-2.917c0.092,-0.981 0.157,-2.028 0.194,-3.14c0.038,-0.148 0.046,-0.297 0.029,-0.445c-0.02,-0.147 -0.029,-0.313 -0.029,-0.5c0.742,-0.407 1.473,-0.536 2.196,-0.389c0.722,0.149 1.453,0.297 2.194,0.445c0.334,0.075 0.537,0.259 0.611,0.555c0.075,0.297 0.112,0.631 0.112,1c-0.074,1.15 -0.13,2.298 -0.167,3.446c-0.037,1.149 -0.093,2.371 -0.166,3.668l1.167,-1.446l4.389,-4.834c1.223,-1.334 2.815,-1.703 4.779,-1.111c0.222,0.741 0.351,1.491 0.389,2.25c0.037,0.76 0.018,1.528 -0.055,2.307c-0.075,0.777 -0.167,1.565 -0.279,2.361c-0.111,0.797 -0.167,1.603 -0.167,2.417l1.001,-0.889c0.296,-0.37 0.658,-0.787 1.083,-1.25c0.426,-0.463 0.852,-0.935 1.279,-1.417c0.425,-0.481 0.842,-0.954 1.25,-1.417c0.407,-0.463 0.759,-0.88 1.055,-1.251c0.186,-0.407 0.463,-0.786 0.834,-1.138c0.37,-0.352 0.769,-0.648 1.195,-0.889c0.425,-0.241 0.851,-0.417 1.278,-0.528c0.426,-0.112 0.806,-0.112 1.139,0c0.592,0.222 0.834,0.648 0.722,1.278c-0.221,1.297 -0.444,2.584 -0.667,3.861c-0.221,1.279 -0.463,2.567 -0.721,3.863c-0.112,0.592 -0.177,1.194 -0.196,1.805c-0.018,0.612 0.14,1.25 0.473,1.917c0.334,-0.221 0.647,-0.518 0.944,-0.888c0.297,-0.37 0.593,-0.667 0.89,-0.89" style="fill:#00113a;fill-rule:nonzero;"/><path d="M175.351,232.903c0.37,-0.852 0.703,-1.723 1,-2.611c0.297,-0.89 0.593,-1.779 0.89,-2.667l-0.167,-0.723c-0.186,-0.63 -0.306,-1.547 -0.362,-2.751c-0.055,-1.203 0.009,-2.453 0.195,-3.751c-0.409,-0.518 -0.742,-1.064 -1,-1.639c-0.26,-0.574 -0.389,-1.231 -0.389,-1.972c-0.186,0 -0.334,-0.019 -0.444,-0.056c-0.076,0.111 -0.149,0.214 -0.223,0.306c-0.074,0.093 -0.13,0.194 -0.167,0.305c-0.667,2 -1.167,4.038 -1.5,6.113c-0.333,2.075 -0.537,4.205 -0.611,6.39c-0.037,0.519 -0.019,1.056 0.055,1.612c0.075,0.555 0.167,1.111 0.278,1.667c0.037,0.185 0.13,0.388 0.278,0.611c0.147,0.222 0.314,0.37 0.5,0.444c0.147,0.074 0.324,0.056 0.528,-0.055c0.203,-0.112 0.379,-0.223 0.528,-0.333c0.296,-0.223 0.5,-0.519 0.611,-0.89m4.334,-4.445c0.148,0.148 0.297,0.222 0.445,0.222c0.259,0 0.509,-0.064 0.75,-0.194c0.241,-0.13 0.5,-0.297 0.778,-0.501c0.278,-0.203 0.592,-0.425 0.945,-0.666c0.352,-0.241 0.786,-0.473 1.306,-0.695c-0.076,0.408 -0.204,0.852 -0.389,1.334c-0.187,0.481 -0.594,0.964 -1.223,1.444c-0.593,0.52 -1.084,0.861 -1.472,1.028c-0.389,0.167 -0.899,0.139 -1.529,-0.083c-0.074,0 -0.13,-0.018 -0.167,-0.055c-0.11,0.408 -0.221,0.805 -0.333,1.194c-0.111,0.39 -0.259,0.788 -0.444,1.195c-0.297,0.742 -0.687,1.426 -1.167,2.056c-0.482,0.629 -1.223,0.963 -2.223,1c-1.667,0.036 -3.242,-0.481 -4.723,-1.556c-0.482,-0.334 -0.843,-0.75 -1.083,-1.25c-0.242,-0.5 -0.381,-1.028 -0.417,-1.584l0,-5.279c0,-0.185 -0.01,-0.352 -0.029,-0.5c-0.018,-0.147 -0.027,-0.314 -0.027,-0.5l0.333,-3.557c0.297,-1.703 0.695,-3.351 1.195,-4.945c0.5,-1.592 1.102,-3.167 1.806,-4.723l0.5,-0.834c0.481,-1 1.334,-1.351 2.557,-1.055c0.666,0.185 1.341,0.352 2.027,0.5c0.686,0.148 1.38,0.297 2.084,0.444c0,0.075 0.009,0.131 0.028,0.167c0.018,0.037 0.028,0.093 0.028,0.167c-0.445,0.297 -0.899,0.574 -1.362,0.833c-0.464,0.26 -0.88,0.575 -1.25,0.945c-0.334,0.371 -0.621,0.788 -0.861,1.25c-0.241,0.464 -0.325,0.973 -0.25,1.529c0.852,0.185 1.703,0.343 2.556,0.471c0.851,0.131 1.741,0.27 2.668,0.417l1.055,4.501c0,0.371 -0.055,0.704 -0.167,1c-0.111,0.297 -0.241,0.612 -0.388,0.946c-0.149,0.333 -0.306,0.713 -0.473,1.138c-0.167,0.427 -0.325,0.937 -0.473,1.529l-0.611,2.667Z" style="fill:#00113a;fill-rule:nonzero;"/><path d="M196.91,229.569c0.556,-0.147 1.074,-0.527 1.556,-1.139c0.481,-0.611 1.074,-1.268 1.778,-1.972c-0.223,2 -0.741,3.472 -1.556,4.417c-0.815,0.945 -1.631,1.436 -2.445,1.472c-0.52,0.037 -1.037,-0.203 -1.556,-0.722c-0.519,-0.518 -0.926,-1.112 -1.222,-1.778c-0.63,1.112 -1.242,2.232 -1.834,3.362c-0.593,1.13 -1.037,1.991 -1.333,2.584c-0.371,0.888 -1.02,1.222 -1.946,1c-0.371,-0.075 -0.722,-0.159 -1.055,-0.25c-0.333,-0.093 -0.686,-0.214 -1.056,-0.362c-0.223,-0.074 -0.464,-0.138 -0.723,-0.194c-0.259,-0.056 -0.519,-0.13 -0.777,-0.222c-0.26,-0.093 -0.492,-0.214 -0.695,-0.361c-0.204,-0.148 -0.324,-0.334 -0.362,-0.556c-0.258,-0.444 -0.435,-1.111 -0.527,-2.001c-0.093,-0.888 -0.269,-1.758 -0.528,-2.611c0.037,-0.407 -0.019,-0.814 -0.166,-1.223c-0.149,-0.407 -0.223,-0.851 -0.223,-1.334c0,-0.517 0.009,-1.083 0.027,-1.694c0.019,-0.611 0.047,-1.213 0.084,-1.806c0.037,-0.667 0.092,-1.352 0.167,-2.056c0.074,-1.296 0.222,-2.296 0.445,-3c0.221,-0.703 0.333,-1.242 0.333,-1.612c-0.037,-0.963 0.426,-1.37 1.389,-1.222c0.518,0.111 1.028,0.221 1.528,0.333c0.501,0.111 1.009,0.241 1.528,0.389c0.111,0 0.223,0.028 0.334,0.083c0.11,0.056 0.222,0.121 0.333,0.195c0.111,0.481 0.12,0.954 0.027,1.417c-0.092,0.464 -0.241,0.991 -0.444,1.584c-0.204,0.592 -0.444,1.297 -0.722,2.111c-0.278,0.815 -0.547,1.815 -0.806,3.001c-0.186,0.814 -0.259,1.714 -0.222,2.694c0.036,0.983 0.139,1.909 0.306,2.779c0.167,0.871 0.407,1.631 0.722,2.278c0.314,0.648 0.658,1.047 1.028,1.195c0.111,-0.148 0.296,-0.435 0.555,-0.861c0.259,-0.426 0.509,-0.88 0.75,-1.361c0.242,-0.482 0.463,-0.926 0.667,-1.334c0.204,-0.408 0.325,-0.648 0.362,-0.723l1.055,-2.167c0.259,-0.444 0.389,-0.889 0.389,-1.334c0,-0.444 -0.055,-0.907 -0.166,-1.389c-0.223,-0.963 -0.288,-1.898 -0.194,-2.806c0.091,-0.908 0.508,-1.731 1.25,-2.473c0.147,-0.185 0.314,-0.342 0.5,-0.472c0.184,-0.13 0.37,-0.175 0.555,-0.139c0.667,0.038 1.334,0.102 2,0.195c0.667,0.093 1.353,0.176 2.057,0.25l-2.223,5.723c-0.148,0.298 -0.288,0.575 -0.417,0.834c-0.13,0.259 -0.25,0.481 -0.361,0.667c0.074,1.185 0.278,1.944 0.611,2.278c0.333,0.333 0.741,0.444 1.223,0.333" style="fill:#00113a;fill-rule:nonzero;"/><path d="M203.689,214.287c-0.778,0.223 -1.417,0.167 -1.917,-0.166c-0.5,-0.334 -0.788,-0.907 -0.861,-1.723c-0.186,-1.555 -0.066,-3.065 0.361,-4.529c0.425,-1.463 0.935,-2.897 1.528,-4.307c0.075,-0.184 0.242,-0.369 0.5,-0.555c0.26,-0.185 0.5,-0.296 0.722,-0.333c0.444,-0.074 0.843,0 1.195,0.222c0.352,0.222 0.639,0.528 0.862,0.917c0.221,0.389 0.369,0.825 0.445,1.306c0.073,0.481 0.055,0.944 -0.056,1.389c-0.408,0.852 -0.778,1.714 -1.111,2.584c-0.333,0.871 -0.667,1.732 -1,2.584c-0.188,0.408 -0.315,0.834 -0.391,1.278c-0.073,0.444 -0.166,0.889 -0.276,1.333m-0.5,17.615c0.37,-0.481 0.74,-0.99 1.111,-1.528c0.37,-0.536 0.75,-1.056 1.139,-1.556c0.389,-0.5 0.778,-0.935 1.167,-1.305c0.389,-0.371 0.75,-0.648 1.084,-0.834c-0.26,0.63 -0.612,1.38 -1.056,2.251c-0.445,0.871 -0.899,1.694 -1.361,2.472c-0.464,0.778 -0.891,1.445 -1.278,2c-0.389,0.556 -0.641,0.834 -0.75,0.834c-0.261,0 -0.667,-0.028 -1.224,-0.084c-0.556,-0.054 -0.944,-0.138 -1.167,-0.25c-0.555,-0.147 -0.944,-0.49 -1.167,-1.027c-0.222,-0.537 -0.37,-1.103 -0.444,-1.695c-0.076,-0.519 -0.103,-1.139 -0.084,-1.862c0.018,-0.722 -0.009,-1.342 -0.083,-1.861c0,-0.036 0.008,-0.167 0.028,-0.389c0.018,-0.222 0.036,-0.472 0.055,-0.751c0.018,-0.277 0.018,-0.555 0,-0.833c-0.019,-0.278 -0.047,-0.49 -0.083,-0.638c-0.037,-0.556 -0.056,-1.029 -0.056,-1.417c0,-0.39 0.019,-0.788 0.056,-1.196c0.036,-0.407 0.111,-0.851 0.222,-1.333c0.112,-0.481 0.259,-1.056 0.445,-1.722c0.184,-0.259 0.333,-0.547 0.444,-0.862c0.112,-0.314 0.37,-0.508 0.778,-0.584c0.519,-0.073 1.047,-0.129 1.584,-0.166c0.536,-0.037 1.083,0.166 1.639,0.611c-0.52,0.889 -0.787,1.825 -0.806,2.806c-0.018,0.982 -0.008,1.973 0.029,2.973c0.036,0.482 0.028,1.075 -0.029,1.778c-0.054,0.704 -0.111,1.436 -0.167,2.196c-0.054,0.758 -0.091,1.491 -0.111,2.194c-0.019,0.704 0.01,1.297 0.084,1.778" style="fill:#00113a;fill-rule:nonzero;"/><path d="M212.913,221.345c2.63,-2.63 4.297,-4.797 5.001,-6.502c-0.741,-0.222 -1.214,-0.323 -1.417,-0.306c-0.204,0.02 -0.491,0.233 -0.861,0.64c-0.816,0.853 -1.464,1.76 -1.946,2.723c-0.481,0.964 -0.833,1.964 -1.055,3.001c0,0.074 0.028,0.148 0.084,0.221c0.054,0.076 0.119,0.149 0.194,0.223m7.445,-7.335c0.853,0.26 1.186,0.723 1.001,1.389c-0.075,0.186 -0.139,0.361 -0.194,0.528c-0.056,0.167 -0.14,0.343 -0.251,0.528c-0.814,1.409 -1.76,2.76 -2.833,4.056c-1.075,1.298 -2.278,2.538 -3.612,3.724c-0.482,0.444 -0.954,0.908 -1.417,1.388c-0.464,0.483 -0.862,0.983 -1.195,1.5c-0.222,0.371 -0.361,0.77 -0.417,1.196c-0.055,0.425 -0.084,0.842 -0.084,1.25c0,0.63 0.242,1.315 0.723,2.055c0.481,0.742 1.056,1.316 1.723,1.723c0.296,-0.222 0.694,-0.509 1.194,-0.861c0.501,-0.352 0.898,-0.658 1.195,-0.916c1.185,-1.075 2.37,-2.029 3.557,-2.863c1.185,-0.833 2.074,-1.564 2.667,-2.194c-0.075,0.407 -0.167,0.814 -0.278,1.222c-0.075,0.334 -0.176,0.704 -0.306,1.111c-0.13,0.408 -0.287,0.76 -0.472,1.057c-0.593,0.963 -1.315,1.787 -2.167,2.472c-0.853,0.686 -1.816,1.417 -2.889,2.195c-0.631,0.444 -1.27,0.667 -1.917,0.667c-0.65,0 -1.4,-0.112 -2.251,-0.333c-1.26,-0.334 -2.409,-0.946 -3.446,-1.834c-1.037,-0.89 -1.778,-1.89 -2.222,-3.001c-0.075,-0.148 -0.12,-0.306 -0.139,-0.472c-0.019,-0.167 -0.065,-0.38 -0.139,-0.64c-0.038,-0.37 -0.075,-0.74 -0.111,-1.111c-0.037,-0.37 -0.047,-0.759 -0.028,-1.167c0.018,-0.407 0.064,-0.87 0.139,-1.389c0.074,-0.518 0.222,-1.13 0.445,-1.834c0.296,-1.147 0.703,-2.278 1.222,-3.389c0.519,-1.112 1.019,-2.223 1.5,-3.334c0.185,-0.408 0.398,-0.815 0.639,-1.223c0.241,-0.407 0.491,-0.814 0.751,-1.223c0.147,-0.221 0.313,-0.434 0.5,-0.638c0.185,-0.203 0.369,-0.398 0.556,-0.583c0.703,-0.742 1.684,-1.001 2.944,-0.779c0.297,0.075 0.611,0.112 0.945,0.112c0.333,0 0.667,0.037 1,0.111c0.445,0.074 0.796,0.186 1.056,0.333c0.814,0.52 1.686,0.908 2.611,1.167" style="fill:#00113a;fill-rule:nonzero;"/></g></svg>