<?xml version="1.0" encoding="utf-8"?>
<!-- Generator: Adobe Illustrator 16.0.0, SVG Export Plug-In . SVG Version: 6.00 Build 0)  -->
<!DOCTYPE svg PUBLIC "-//W3C//DTD SVG 1.1//EN" "http://www.w3.org/Graphics/SVG/1.1/DTD/svg11.dtd">
<svg version="1.1" id="Calque_1" xmlns="http://www.w3.org/2000/svg" xmlns:xlink="http://www.w3.org/1999/xlink" x="0px" y="0px"
	 width="85.334px" height="85.334px" viewBox="0 0 85.334 85.334" enable-background="new 0 0 85.334 85.334" xml:space="preserve">
<g>
	<rect fill="#FFFFFF" width="85.334" height="85.334"/>
	<g>
		<path fill="#181C36" d="M76.852,21.152c0.417,0.417,0.496,1.014,0.177,1.333L28.954,70.561c-0.319,0.318-0.917,0.239-1.334-0.178
			L14.926,57.688c-0.416-0.417-0.495-1.015-0.176-1.334L62.824,8.281c0.319-0.319,0.916-0.241,1.333,0.176L76.852,21.152z"/>
		<path fill="#181C36" d="M11.434,60.238c-0.615,0.001-1.114,0.5-1.113,1.114L8.109,76.137c0.001,0.614,0.5,1.113,1.113,1.113
			l14.784-2.21c0.615,0,1.113-0.499,1.113-1.113L11.434,60.238z"/>
	</g>
</g>
</svg>
