<?xml version="1.0" encoding="utf-8"?>
<!-- Generator: Adobe Illustrator 16.0.0, SVG Export Plug-In . SVG Version: 6.00 Build 0)  -->
<!DOCTYPE svg PUBLIC "-//W3C//DTD SVG 1.1//EN" "http://www.w3.org/Graphics/SVG/1.1/DTD/svg11.dtd">
<svg
  version="1.1"
  id="Calque_1"
  xmlns="http://www.w3.org/2000/svg"
  xmlns:xlink="http://www.w3.org/1999/xlink"
  x="0px"
  y="0px"
  width="1000.055px"
  height="206.981px"
  viewBox="0 0 1000.055 206.981"
  enable-background="new 0 0 1000.055 206.981"
  xml:space="preserve"
>
  <g>
    <g>
      <path
        fill="#E4BD05"
        d="M750.214,21.083c-28.326,0-51.29,22.963-51.29,51.29c0,28.328,22.964,51.292,51.29,51.292
			c28.328,0,51.293-22.964,51.293-51.292C801.507,44.046,778.542,21.083,750.214,21.083z M750.214,107.934
			c-19.635,0-35.561-15.922-35.561-35.561c0-19.639,15.926-35.562,35.561-35.562c19.642,0,35.56,15.923,35.56,35.562
			C785.774,92.012,769.856,107.934,750.214,107.934z"
      />
    </g>
    <g>
      <defs>
        <path
          id="SVGID_1_"
          d="M750.214,21.083c-28.326,0-51.29,22.963-51.29,51.29c0,28.328,22.964,51.292,51.29,51.292
				c28.328,0,51.293-22.964,51.293-51.292C801.507,44.046,778.542,21.083,750.214,21.083z M750.214,107.934
				c-19.635,0-35.561-15.922-35.561-35.561c0-19.639,15.926-35.562,35.561-35.562c19.642,0,35.56,15.923,35.56,35.562
				C785.774,92.012,769.856,107.934,750.214,107.934z"
        />
      </defs>
      <clipPath id="SVGID_2_">
        <use xlink:href="#SVGID_1_" overflow="visible" />
      </clipPath>
      <path
        clip-path="url(#SVGID_2_)"
        fill="#CE8110"
        d="M788.731,72.16c0,20.386-16.527,36.912-36.909,36.912
			c-20.384,0-36.912-16.526-36.912-36.912c0-20.383,16.528-36.909,36.912-36.909C772.204,35.25,788.731,51.776,788.731,72.16z"
      />
    </g>
    <g>
      <defs>
        <path
          id="SVGID_3_"
          d="M750.214,21.083c-28.326,0-51.29,22.963-51.29,51.29c0,28.328,22.964,51.292,51.29,51.292
				c28.328,0,51.293-22.964,51.293-51.292C801.507,44.046,778.542,21.083,750.214,21.083z M750.214,107.934
				c-19.635,0-35.561-15.922-35.561-35.561c0-19.639,15.926-35.562,35.561-35.562c19.642,0,35.56,15.923,35.56,35.562
				C785.774,92.012,769.856,107.934,750.214,107.934z"
        />
      </defs>
      <clipPath id="SVGID_4_">
        <use xlink:href="#SVGID_3_" overflow="visible" />
      </clipPath>
      <path
        clip-path="url(#SVGID_4_)"
        fill="#CE8110"
        d="M752.853,123.665c-28.322,0-50.782-22.964-50.782-51.292
			c0-28.327,22.205-51.29,50.529-51.29c0.746,0,1.455,0.079,1.455,0.111v-0.523h-74v104h74v-1.119
			C754.055,123.585,753.599,123.665,752.853,123.665z"
      />
    </g>
    <path
      fill="#FFFEF4"
      d="M777.525,52.44c0,0-2.22-21.938-3.547-23.286c-1.388-1.402-19.773-3.779-19.773-3.779
		s18.357-2.061,19.72-3.41C775.332,20.574,777.525,0,777.525,0s2.276,20.583,3.704,21.984c1.344,1.326,17.646,3.392,17.646,3.392
		s-16.198,2.625-17.571,4.01C779.986,30.716,777.525,52.44,777.525,52.44z"
    />
    <path
      fill="#FEFBE4"
      d="M785.712,38.976c0,0-0.464-4.565-0.737-4.847c-0.288-0.29-4.112-0.783-4.112-0.783s3.817-0.429,4.104-0.712
		c0.291-0.289,0.746-4.566,0.746-4.566s0.474,4.281,0.775,4.573c0.277,0.272,3.667,0.706,3.667,0.706s-3.368,0.547-3.652,0.832
		C786.227,34.455,785.712,38.976,785.712,38.976z"
    />
    <path fill="#181C36" d="M642.617,103.893" />
    <g>
      <linearGradient
        id="SVGID_5_"
        gradientUnits="userSpaceOnUse"
        x1="561.6489"
        y1="167.8711"
        x2="568.9444"
        y2="147.8269"
        gradientTransform="matrix(1.0917 -0.0392 0.0413 1.1506 -51.1552 8.2282)"
      >
        <stop offset="0" style="stop-color: #48556c; stop-opacity: 0;" />
        <stop
          offset="0.1853"
          style="stop-color: #455269; stop-opacity: 0.1627;"
        />
        <stop
          offset="0.3822"
          style="stop-color: #3a4962; stop-opacity: 0.3356;"
        />
        <stop
          offset="0.4362"
          style="stop-color: #37455f; stop-opacity: 0.3829;"
        />
        <stop
          offset="0.6254"
          style="stop-color: #293855; stop-opacity: 0.5901;"
        />
        <stop
          offset="0.8298"
          style="stop-color: #20304f; stop-opacity: 0.8137;"
        />
        <stop offset="1" style="stop-color: #1d2d4c;" />
      </linearGradient>
      <path
        fill="url(#SVGID_5_)"
        d="M603.099,166.589c0.113,3.156-13.491,6.208-30.395,6.815c-16.898,0.608-30.688-1.459-30.803-4.616
			c-0.11-3.153,13.494-6.206,30.393-6.815C589.196,161.366,602.985,163.435,603.099,166.589z"
      />

      <linearGradient
        id="SVGID_6_"
        gradientUnits="userSpaceOnUse"
        x1="842.5474"
        y1="209.3955"
        x2="839.5621"
        y2="192.4653"
        gradientTransform="matrix(1.1985 -0.1665 0.138 0.993 -134.3311 105.6305)"
      >
        <stop offset="0" style="stop-color: #48556c; stop-opacity: 0;" />
        <stop
          offset="0.1853"
          style="stop-color: #455269; stop-opacity: 0.1627;"
        />
        <stop
          offset="0.3822"
          style="stop-color: #3a4962; stop-opacity: 0.3356;"
        />
        <stop
          offset="0.4362"
          style="stop-color: #37455f; stop-opacity: 0.3829;"
        />
        <stop
          offset="0.6254"
          style="stop-color: #293855; stop-opacity: 0.5901;"
        />
        <stop
          offset="0.8298"
          style="stop-color: #20304f; stop-opacity: 0.8137;"
        />
        <stop offset="1" style="stop-color: #1d2d4c;" />
      </linearGradient>
      <path
        fill="url(#SVGID_6_)"
        d="M916.347,169.726c-6.722,2.472-13.883,1.807-16.568,1.512c-10.743-1.173-12.657-5.271-13.113-8.548
			c-0.455-3.279,9.631-6.811,15.47,0.628C907.069,169.611,920.058,168.358,916.347,169.726z"
      />
      <linearGradient
        id="SVGID_7_"
        gradientUnits="userSpaceOnUse"
        x1="862.644"
        y1="175.1338"
        x2="858.489"
        y2="151.5696"
      >
        <stop offset="0" style="stop-color: #48556c; stop-opacity: 0;" />
        <stop
          offset="0.1853"
          style="stop-color: #455269; stop-opacity: 0.1627;"
        />
        <stop
          offset="0.3822"
          style="stop-color: #3a4962; stop-opacity: 0.3356;"
        />
        <stop
          offset="0.4362"
          style="stop-color: #37455f; stop-opacity: 0.3829;"
        />
        <stop
          offset="0.6254"
          style="stop-color: #293855; stop-opacity: 0.5901;"
        />
        <stop
          offset="0.8298"
          style="stop-color: #20304f; stop-opacity: 0.8137;"
        />
        <stop offset="1" style="stop-color: #1d2d4c;" />
      </linearGradient>
      <path
        fill="url(#SVGID_7_)"
        d="M884.133,171.344c-7.76,1.231-16.431,2.51-30.721,0.201c-18.982-3.063-16.053-9.692-16.053-15.02
			c0-5.33,9.247,6.597,23.648,6.597C875.416,163.122,888.258,170.688,884.133,171.344z"
      />

      <linearGradient
        id="SVGID_8_"
        gradientUnits="userSpaceOnUse"
        x1="934.1079"
        y1="197.1113"
        x2="911.4151"
        y2="170.0671"
        gradientTransform="matrix(1.1645 -0.0229 0.018 0.9123 -107.3699 21.9933)"
      >
        <stop offset="0" style="stop-color: #48556c; stop-opacity: 0;" />
        <stop
          offset="0.1853"
          style="stop-color: #455269; stop-opacity: 0.1627;"
        />
        <stop
          offset="0.3822"
          style="stop-color: #3a4962; stop-opacity: 0.3356;"
        />
        <stop
          offset="0.4362"
          style="stop-color: #37455f; stop-opacity: 0.3829;"
        />
        <stop
          offset="0.6254"
          style="stop-color: #293855; stop-opacity: 0.5901;"
        />
        <stop
          offset="0.8298"
          style="stop-color: #20304f; stop-opacity: 0.8137;"
        />
        <stop offset="1" style="stop-color: #1d2d4c;" />
      </linearGradient>
      <path
        fill="url(#SVGID_8_)"
        d="M941.167,167.404c-0.034-1.665,12.905-3.268,28.897-3.58c15.991-0.316,29.959,3.768,29.991,5.433
			c0.03,1.667-22.457,0.903-38.448,1.221C945.619,170.791,941.199,169.071,941.167,167.404z"
      />
      <linearGradient
        id="SVGID_9_"
        gradientUnits="userSpaceOnUse"
        x1="464.3428"
        y1="181.3613"
        x2="478.3408"
        y2="157.116"
      >
        <stop offset="0" style="stop-color: #48556c; stop-opacity: 0;" />
        <stop
          offset="0.1853"
          style="stop-color: #455269; stop-opacity: 0.1627;"
        />
        <stop
          offset="0.3822"
          style="stop-color: #3a4962; stop-opacity: 0.3356;"
        />
        <stop
          offset="0.4362"
          style="stop-color: #37455f; stop-opacity: 0.3829;"
        />
        <stop
          offset="0.6254"
          style="stop-color: #293855; stop-opacity: 0.5901;"
        />
        <stop
          offset="0.8298"
          style="stop-color: #20304f; stop-opacity: 0.8137;"
        />
        <stop offset="1" style="stop-color: #1d2d4c;" />
      </linearGradient>
      <path
        fill="url(#SVGID_9_)"
        d="M498.743,169.238c0,1.82-12.266,3.295-27.402,3.295c-15.133,0-27.401-1.475-27.401-3.295
			s12.269-3.294,27.401-3.294C486.477,165.944,498.743,167.418,498.743,169.238z"
      />
      <linearGradient
        id="SVGID_10_"
        gradientUnits="userSpaceOnUse"
        x1="380.3501"
        y1="174.8906"
        x2="403.9679"
        y2="161.2549"
      >
        <stop offset="0" style="stop-color: #48556c; stop-opacity: 0;" />
        <stop
          offset="0.1853"
          style="stop-color: #455269; stop-opacity: 0.1627;"
        />
        <stop
          offset="0.3822"
          style="stop-color: #3a4962; stop-opacity: 0.3356;"
        />
        <stop
          offset="0.4362"
          style="stop-color: #37455f; stop-opacity: 0.3829;"
        />
        <stop
          offset="0.6254"
          style="stop-color: #293855; stop-opacity: 0.5901;"
        />
        <stop
          offset="0.8298"
          style="stop-color: #20304f; stop-opacity: 0.8137;"
        />
        <stop offset="1" style="stop-color: #1d2d4c;" />
      </linearGradient>
      <ellipse
        fill="url(#SVGID_10_)"
        cx="392.159"
        cy="168.072"
        rx="15.696"
        ry="2.139"
      />
      <linearGradient
        id="SVGID_11_"
        gradientUnits="userSpaceOnUse"
        x1="652.8032"
        y1="175.3535"
        x2="654.9816"
        y2="162.9997"
      >
        <stop offset="0" style="stop-color: #48556c; stop-opacity: 0;" />
        <stop
          offset="0.1853"
          style="stop-color: #455269; stop-opacity: 0.1627;"
        />
        <stop
          offset="0.3822"
          style="stop-color: #3a4962; stop-opacity: 0.3356;"
        />
        <stop
          offset="0.4362"
          style="stop-color: #37455f; stop-opacity: 0.3829;"
        />
        <stop
          offset="0.6254"
          style="stop-color: #293855; stop-opacity: 0.5901;"
        />
        <stop
          offset="0.8298"
          style="stop-color: #20304f; stop-opacity: 0.8137;"
        />
        <stop offset="1" style="stop-color: #1d2d4c;" />
      </linearGradient>
      <path
        fill="url(#SVGID_11_)"
        d="M638.522,169.027c2.988-3.347,15.897-4.314,25.455-4.314c4.33,0,5.847,3.16,5.887,4.142
			c0.031,0.762-2.719,3.159-13.151,4.489c-5.928,0.758-15.619,0.283-18.386-0.625C636.907,172.253,637.891,169.735,638.522,169.027z
			"
      />
    </g>
    <g>
      <path
        fill="#181C36"
        d="M47.821,113.282c0-6.001-0.855-10.323-2.558-12.971c-1.707-2.648-4.387-3.97-8.03-3.97
			c-6.353,0-12.705,3.59-19.059,10.765v61.408c-2.003,0.467-5,0.704-8.999,0.704c-1.884,0-3.59-0.059-5.117-0.176
			c-1.53-0.118-2.884-0.294-4.059-0.528V81.871l1.058-1.236H7.94c6.354,0,9.705,3.705,10.058,11.116
			c8.353-7.999,16.999-11.999,25.94-11.999c9.059,0,15.467,4.355,19.235,13.06c9.643-8.705,18.996-13.06,28.059-13.06
			c7.409,0,13.056,2.588,16.938,7.764c3.882,5.178,5.823,11.823,5.823,19.941v42.35c0,7.297,0.938,12.65,2.822,16.059
			c-3.292,2.59-7.118,3.882-11.469,3.882c-6.471,0-9.705-3.882-9.705-11.646v-44.998c0-5.998-0.854-10.294-2.56-12.88
			c-1.706-2.588-4.385-3.882-8.028-3.882c-6.354,0-12.704,3.59-19.059,10.765v61.408c-1.176,0.234-2.557,0.41-4.145,0.528
			c-1.589,0.117-3.267,0.176-5.032,0.176c-1.646,0-3.294-0.059-4.94-0.176c-1.648-0.118-3.001-0.294-4.058-0.528V113.282z"
      />
      <path
        fill="#181C36"
        d="M213.343,82.929l-23.294,82.761c-2.117,7.414-4.323,13.732-6.615,18.97
			c-2.294,5.234-4.941,9.499-7.942,12.793c-3,3.291-6.528,5.706-10.587,7.234c-4.058,1.526-8.794,2.295-14.204,2.295
			c-0.943,0-2.356-0.06-4.235-0.174c-1.885-0.119-3.767-0.328-5.647-0.622c-1.882-0.295-3.529-0.647-4.94-1.058
			c-1.413-0.416-2.117-0.973-2.117-1.677c0-2.002,0.353-4.233,1.058-6.704c0.707-2.469,1.704-4.354,2.999-5.648
			c3.883,1.53,8.471,2.294,13.766,2.294c5.056,0,9.177-1.792,12.353-5.381c3.177-3.587,5.88-9.091,8.116-16.5l0.53-2.118
			c-3.766-0.118-6.706-0.853-8.822-2.204c-2.118-1.349-3.707-3.792-4.766-7.324L135.7,82.752c4.234-1.765,7.939-2.648,11.118-2.648
			c4.586,0,7.645,2.71,9.175,8.119l11.998,40.586c0.587,1.883,1.413,4.971,2.471,9.265c1.062,4.293,2.411,9.854,4.06,16.674
			c0.116,0.826,0.645,1.237,1.589,1.237l19.41-74.646c0.94-0.233,2.028-0.41,3.266-0.529c1.235-0.115,2.616-0.175,4.146-0.175
			c1.645,0,3.321,0.088,5.029,0.264c1.703,0.176,3.32,0.504,4.853,0.972L213.343,82.929z"
      />
      <path
        fill="#181C36"
        d="M323.805,170.1c-6.591,0-13.297-1.939-20.117-5.823v30.53c0,4.114-0.736,7.086-2.206,8.908
			c-1.472,1.823-4.031,2.738-7.676,2.738h-7.059l-1.06-1.061V81.694l1.06-1.059h5.646c5.879,0,9.469,2.999,10.764,9
			c6.821-7.058,15-10.587,24.528-10.587c4.704,0,8.938,1.056,12.703,3.175c3.765,2.118,6.913,5.178,9.444,9.177
			c2.527,3.999,4.467,8.794,5.822,14.38c1.353,5.59,2.03,11.913,2.03,18.971c0,7.059-0.885,13.411-2.648,19.057
			c-1.766,5.646-4.207,10.412-7.324,14.294c-3.116,3.88-6.734,6.854-10.851,8.911C332.743,169.068,328.39,170.1,323.805,170.1z
			 M323.099,94.399c-7.649,0-14.118,3.835-19.411,11.504v43.356c3.06,2.008,6.026,3.57,8.91,4.688
			c2.881,1.125,5.615,1.684,8.205,1.684c5.528,0,9.97-2.712,13.322-8.139c3.355-5.428,5.032-13.153,5.032-23.187
			c0-10.26-1.531-17.813-4.59-22.65C331.507,96.821,327.686,94.399,323.099,94.399z"
      />
      <path
        fill="#181C36"
        d="M383.093,89.81c1.175-4.349,3.411-7.587,6.708-9.706c8.116,1.767,13.468,7.002,16.056,15.707
			c4.706-10.468,12.412-15.707,23.117-15.707c2.825,0,5.939,0.355,9.354,1.061c0,6.822-1.474,12.589-4.412,17.293
			c-1.06-0.354-3.473-0.645-7.235-0.882c-8.001,0-14.294,4.473-18.88,13.411v57.526c-2.236,0.467-5.27,0.704-9.091,0.704
			c-3.822,0-6.852-0.237-9.084-0.704v-60.526C389.625,99.989,387.443,93.931,383.093,89.81z"
      />
      <path
        fill="#181C36"
        d="M523.028,130.751h-51.879c0.353,8.117,2.085,14.353,5.203,18.703c3.117,4.353,8.385,6.531,15.795,6.531
			c3.527,0,7.324-0.53,11.379-1.592c4.063-1.056,8.268-2.761,12.619-5.115c2.938,2.706,4.881,6.59,5.826,11.647
			c-9.416,6.59-20.471,9.881-33.179,9.881c-6.704,0-12.351-1.176-16.938-3.529s-8.322-5.586-11.207-9.705
			c-2.883-4.116-4.967-9.028-6.263-14.734c-1.296-5.703-1.94-11.851-1.94-18.44c0-6.467,0.82-12.498,2.47-18.088
			c1.646-5.585,3.997-10.379,7.058-14.381c3.059-3.998,6.854-7.147,11.382-9.44c4.528-2.297,9.616-3.441,15.265-3.441
			c5.645,0,10.678,0.943,15.09,2.823c4.408,1.882,8.141,4.498,11.199,7.851c3.061,3.354,5.383,7.355,6.975,12.001
			c1.588,4.649,2.383,9.676,2.383,15.088c0,2.354-0.094,4.676-0.27,6.967C523.825,126.073,523.499,128.397,523.028,130.751z
			 M489.147,92.636c-11.179,0-17.178,8.292-17.999,24.88h35.645v-2.295c0-6.704-1.445-12.146-4.322-16.32
			C499.586,94.725,495.146,92.636,489.147,92.636z"
      />
      <path
        fill="#181C36"
        d="M601.553,115.045v-1.941c0-13.291-5.15-19.939-15.447-19.939c-5.615,0-9.945,2.709-12.99,8.117
			c-3.041,5.414-4.559,13.471-4.559,24.176c0,20.232,6.621,30.353,19.867,30.353c6.561,0,13.652-2.94,21.273-8.825
			c1.643,0.943,3.225,2.47,4.746,4.589c1.523,2.117,2.525,4.177,2.988,6.175c-8.703,8.706-19.232,13.059-31.586,13.059
			c-6.238,0-11.615-1.146-16.146-3.441c-4.523-2.293-8.291-5.498-11.291-9.617c-3-4.114-5.234-9.056-6.707-14.82
			c-1.471-5.764-2.201-12.114-2.201-19.06c0-7.174,0.996-13.557,2.998-19.146c1.998-5.587,4.676-10.261,8.027-14.028
			c3.352-3.764,7.236-6.646,11.648-8.648c4.41-1.998,9.084-2.998,14.025-2.998c5.061,0,9.559,0.765,13.498,2.292
			c3.941,1.531,7.297,3.531,10.059,6c2.766,2.47,4.883,5.324,6.354,8.558c1.471,3.237,2.207,6.503,2.207,9.796
			c0,6.703-3.057,10.056-9.178,10.056C606.081,115.75,603.555,115.517,601.553,115.045z"
      />
      <path
        fill="#181C36"
        d="M669.84,96.515v71.999c-2.236,0.467-5.266,0.704-9.088,0.704s-6.855-0.237-9.086-0.704v-64.584
			c0-3.292-0.592-5.648-1.766-7.059c-1.178-1.412-3.176-2.118-5.998-2.118h-1.943c-0.59-2.587-0.883-4.764-0.883-6.53
			c0-1.763,0.293-3.997,0.883-6.707c3.883-0.468,7.59-0.706,11.117-0.706h2.471c4.469,0,7.969,1.412,10.5,4.235
			C668.575,87.872,669.84,91.694,669.84,96.515z M647.782,64.93c-1.057-2.117-1.586-4.704-1.586-7.766
			c0-4.821,0.881-7.675,2.648-8.556c1.764-0.883,4.701-1.383,8.82-1.501c4.703,0.118,7.705,0.707,8.998,1.764
			c1.295,1.06,2,3.826,2.119,8.293c-0.119,4.236-0.824,6.944-2.119,8.118c-1.293,1.177-4.295,1.826-8.998,1.941
			C653.077,67.224,649.782,66.46,647.782,64.93z"
      />
      <path
        fill="#181C36"
        d="M827.614,141.161v-41.116c0-7.058-0.996-12.353-2.998-15.881c2.939-2.585,6.764-3.88,11.467-3.88
			c6.473,0,9.707,3.813,9.707,11.442v44.89c0,6.104,0.764,10.446,2.297,13.025c1.525,2.582,4.234,3.873,8.115,3.873
			c3.879,0,7.822-0.966,11.822-2.904c3.998-1.936,7.588-4.546,10.766-7.834V81.34c3.293-0.468,6.289-0.705,9-0.705
			c2.701,0,5.822,0.237,9.35,0.705v62.468c0,8.237,1.646,13.825,4.941,16.765c-1.297,4.236-3.588,7.293-6.883,9.175
			c-7.408-1.292-12.354-5.529-14.82-12.704c-9.178,8.707-19.004,13.057-29.471,13.057c-7.76,0-13.59-2.645-17.471-7.939
			C829.557,156.866,827.614,149.867,827.614,141.161z"
      />
      <path
        fill="#181C36"
        d="M925.374,161.981c0.117-1.997,0.762-4.261,1.932-6.792c1.174-2.527,2.521-4.5,4.045-5.911
			c9.375,5.179,16.992,7.765,22.854,7.765c5.975,0,10.396-0.999,13.273-2.999c2.871-1.999,4.305-4.647,4.305-7.944
			c0-5.171-3.691-9.173-11.072-11.997l-9.842-3.705c-14.881-5.646-22.32-14.057-22.32-25.233c0-8.118,2.914-14.499,8.738-19.147
			c5.822-4.646,13.438-6.969,22.852-6.969c9.527,0,18.996,2.117,28.41,6.352c0,2.355-0.502,4.824-1.5,7.413
			c-1,2.587-2.324,4.586-3.969,6c-8.355-3.884-16.18-5.825-23.469-5.825c-3.885,0-6.973,0.944-9.268,2.824
			c-2.293,1.884-3.443,4.234-3.443,7.058c0,2.826,0.855,5.004,2.563,6.531c1.701,1.529,4.5,3.061,8.381,4.588l10.588,4.058
			c14.939,5.767,22.41,14.588,22.41,26.469c0,8.117-3.119,14.531-9.352,19.235c-6.238,4.706-14.707,7.058-25.412,7.058
			S935.137,167.865,925.374,161.981z"
      />
    </g>

    <radialGradient
      id="SVGID_12_"
      cx="763.9868"
      cy="187.3662"
      r="39.3229"
      gradientTransform="matrix(0.9272 0 0 0.7664 41.6229 15.967)"
      gradientUnits="userSpaceOnUse"
    >
      <stop offset="0" style="stop-color: #e4be45;" />
      <stop
        offset="0.1436"
        style="stop-color: #e3c15b; stop-opacity: 0.8553;"
      />
      <stop offset="0.438" style="stop-color: #e2c98c; stop-opacity: 0.5588;" />
      <stop
        offset="0.7181"
        style="stop-color: #e0d1b9; stop-opacity: 0.2766;"
      />
      <stop offset="1" style="stop-color: #e0d1b9; stop-opacity: 0;" />
    </radialGradient>
    <path
      fill="url(#SVGID_12_)"
      d="M801.507,159.566c0,1-23.064,1.814-51.518,1.814c-28.448,0-51.515-0.814-51.515-1.814
		c0-1.006,23.066-1.816,51.515-1.816C778.443,157.75,801.507,158.561,801.507,159.566z"
    />
  </g>
</svg>
