<svg
  version="1.1"
  xmlns="http://www.w3.org/2000/svg"
  xmlns:xlink="http://www.w3.org/1999/xlink"
  x="0px"
  y="0px"
  width="20px"
  height="20px"
  viewBox="0 0 115 115"
  enable-background="new 0 0 115 115"
  xml:space="preserve"
>
  <circle fill="#CD8010" cx="57.5" cy="57.5" r="57.479" />
  <path
    fill="#FFFFFF"
    d="M90.892,51.935H63.065V24.108c0-3.649-2.959-6.608-6.608-6.608c-3.65,0-6.609,2.959-6.609,6.608v27.826
							H24.109c-3.65,0-6.609,2.959-6.609,6.608c0,3.65,2.958,6.609,6.609,6.609h25.739v25.739c0,3.649,2.959,6.608,6.609,6.608
							c3.649,0,6.608-2.959,6.608-6.608V65.152h27.826c3.649,0,6.608-2.959,6.608-6.609C97.5,54.894,94.541,51.935,90.892,51.935z"
  />
</svg>
